<svg xmlns="http://www.w3.org/2000/svg" xmlns:xlink="http://www.w3.org/1999/xlink" width="300" zoomAndPan="magnify" viewBox="0 0 224.87999 49.499998" height="66" preserveAspectRatio="xMidYMid meet" version="1.0"><defs><g/><clipPath id="46865b0b7b"><path d="M 2.210938 1.144531 L 48.917969 1.144531 L 48.917969 47.851562 L 2.210938 47.851562 Z M 2.210938 1.144531 " clip-rule="nonzero"/></clipPath><clipPath id="c1fb2c2266"><path d="M 25.5625 1.144531 C 12.667969 1.144531 2.210938 11.601562 2.210938 24.5 C 2.210938 37.398438 12.667969 47.851562 25.5625 47.851562 C 38.460938 47.851562 48.917969 37.398438 48.917969 24.5 C 48.917969 11.601562 38.460938 1.144531 25.5625 1.144531 Z M 25.5625 1.144531 " clip-rule="nonzero"/></clipPath><clipPath id="a876c277dd"><path d="M 13 4.957031 L 38 4.957031 L 38 38 L 13 38 Z M 13 4.957031 " clip-rule="nonzero"/></clipPath><clipPath id="aad8e08616"><path d="M 7.023438 7 L 23 7 L 23 34 L 7.023438 34 Z M 7.023438 7 " clip-rule="nonzero"/></clipPath></defs><g clip-path="url(#46865b0b7b)"><g clip-path="url(#c1fb2c2266)"><path stroke-linecap="butt" transform="matrix(0.7425, 0, 0, 0.7425, 2.210358, 1.145359)" fill="none" stroke-linejoin="miter" d="M 31.450697 -0.0011146 C 14.084325 -0.0011146 0.000780924 14.082429 0.000780924 31.454063 C 0.000780924 48.825696 14.084325 62.903979 31.450697 62.903979 C 48.82233 62.903979 62.905874 48.825696 62.905874 31.454063 C 62.905874 14.082429 48.82233 -0.0011146 31.450697 -0.0011146 Z M 31.450697 -0.0011146 " stroke="#3071cd" stroke-width="2" stroke-opacity="1" stroke-miterlimit="4"/></g></g><g clip-path="url(#a876c277dd)"><path fill="#2cb2cd" d="M 16.761719 33.980469 C 17.382812 34.121094 18.011719 34.195312 18.652344 34.199219 C 18.9375 34.199219 19.21875 34.183594 19.503906 34.164062 C 18.527344 33.507812 17.695312 32.703125 17 31.757812 L 16.792969 29.460938 L 16.527344 29.460938 C 16.316406 29.460938 16.132812 29.386719 15.984375 29.238281 C 15.835938 29.085938 15.761719 28.90625 15.761719 28.695312 L 15.761719 24.742188 C 15.761719 24.546875 15.796875 24.355469 15.871094 24.175781 C 15.949219 23.992188 16.054688 23.832031 16.195312 23.691406 C 16.335938 23.550781 16.496094 23.445312 16.679688 23.367188 C 16.859375 23.292969 17.050781 23.257812 17.246094 23.257812 L 17.929688 23.257812 C 18.074219 23.257812 18.167969 23.1875 18.210938 23.050781 C 18.253906 22.910156 18.214844 22.800781 18.09375 22.71875 C 17.828125 22.550781 17.621094 22.332031 17.472656 22.054688 C 17.320312 21.78125 17.246094 21.488281 17.246094 21.175781 L 17.246094 20.863281 C 17.246094 20.605469 17.296875 20.359375 17.402344 20.121094 C 17.507812 19.886719 17.65625 19.679688 17.847656 19.507812 C 18.039062 19.332031 18.257812 19.203125 18.503906 19.125 C 18.75 19.042969 19 19.015625 19.257812 19.039062 C 20.210938 19.128906 20.910156 19.984375 20.910156 20.941406 L 20.910156 21.179688 C 20.910156 21.492188 20.835938 21.785156 20.683594 22.058594 C 20.53125 22.335938 20.324219 22.554688 20.0625 22.722656 C 19.941406 22.804688 19.90625 22.914062 19.949219 23.054688 C 19.992188 23.191406 20.082031 23.257812 20.226562 23.257812 L 20.910156 23.257812 C 21.414062 23.261719 21.816406 23.464844 22.109375 23.878906 C 21.84375 23.960938 21.59375 24.082031 21.367188 24.246094 C 21.140625 24.40625 20.941406 24.601562 20.777344 24.828125 C 20.609375 25.050781 20.484375 25.296875 20.394531 25.5625 C 20.308594 25.828125 20.261719 26.101562 20.261719 26.382812 L 20.261719 31.820312 C 20.261719 32.078125 20.335938 32.3125 20.476562 32.523438 C 20.617188 32.734375 20.804688 32.890625 21.042969 32.992188 L 20.953125 33.957031 C 21.496094 33.84375 22.027344 33.683594 22.542969 33.484375 L 22.316406 32.34375 L 21.53125 32.34375 C 21.386719 32.34375 21.265625 32.292969 21.164062 32.191406 C 21.058594 32.089844 21.007812 31.964844 21.011719 31.820312 L 21.011719 26.378906 C 21.011719 26.128906 21.058594 25.890625 21.152344 25.660156 C 21.25 25.429688 21.382812 25.226562 21.5625 25.050781 C 21.738281 24.875 21.941406 24.738281 22.171875 24.644531 C 22.402344 24.546875 22.640625 24.5 22.890625 24.5 L 23.75 24.5 C 23.933594 24.5 24.050781 24.414062 24.105469 24.238281 C 24.160156 24.066406 24.109375 23.925781 23.960938 23.824219 C 23.625 23.609375 23.363281 23.332031 23.171875 22.984375 C 22.980469 22.636719 22.886719 22.265625 22.886719 21.871094 L 22.886719 21.476562 C 22.886719 21.167969 22.945312 20.871094 23.0625 20.589844 C 23.179688 20.304688 23.347656 20.054688 23.566406 19.835938 C 23.78125 19.621094 24.03125 19.453125 24.316406 19.335938 C 24.601562 19.21875 24.894531 19.160156 25.203125 19.160156 C 25.214844 19.160156 25.226562 19.160156 25.238281 19.160156 C 25.25 19.160156 25.261719 19.160156 25.273438 19.160156 C 25.582031 19.160156 25.875 19.21875 26.160156 19.335938 C 26.445312 19.453125 26.695312 19.621094 26.910156 19.835938 C 27.128906 20.054688 27.296875 20.304688 27.414062 20.589844 C 27.53125 20.871094 27.589844 21.167969 27.589844 21.476562 L 27.589844 21.867188 C 27.589844 22.261719 27.496094 22.632812 27.304688 22.980469 C 27.117188 23.328125 26.851562 23.609375 26.519531 23.820312 C 26.367188 23.921875 26.320312 24.0625 26.375 24.234375 C 26.425781 24.410156 26.546875 24.496094 26.726562 24.496094 L 27.589844 24.496094 C 27.839844 24.496094 28.078125 24.542969 28.308594 24.640625 C 28.539062 24.734375 28.742188 24.871094 28.917969 25.046875 C 29.09375 25.222656 29.230469 25.425781 29.324219 25.65625 C 29.421875 25.886719 29.46875 26.125 29.46875 26.375 L 29.46875 31.820312 C 29.46875 31.964844 29.417969 32.085938 29.316406 32.191406 C 29.214844 32.292969 29.089844 32.339844 28.949219 32.339844 L 28.160156 32.339844 L 27.800781 34.167969 C 27.929688 34.894531 27.625 35.722656 26.996094 36.273438 C 26.464844 36.746094 25.886719 37.152344 25.257812 37.484375 C 26.394531 37.484375 27.511719 37.320312 28.601562 36.996094 C 29.085938 36.699219 29.535156 36.355469 29.949219 35.96875 C 30.324219 35.601562 30.746094 35.292969 31.207031 35.042969 C 31.539062 34.863281 31.894531 34.773438 32.269531 34.765625 C 32.421875 34.765625 32.574219 34.785156 32.722656 34.824219 C 33.3125 34.347656 33.851562 33.820312 34.34375 33.242188 C 34.832031 32.664062 35.261719 32.046875 35.636719 31.386719 C 36.007812 30.726562 36.316406 30.035156 36.554688 29.316406 C 36.796875 28.597656 36.96875 27.863281 37.070312 27.113281 C 37.167969 26.359375 37.199219 25.605469 37.15625 24.851562 C 37.113281 24.09375 37 23.347656 36.816406 22.613281 C 36.632812 21.875 36.378906 21.164062 36.0625 20.476562 C 35.742188 19.789062 35.359375 19.140625 34.914062 18.523438 L 25.816406 5.277344 C 25.75 5.179688 25.660156 5.097656 25.550781 5.042969 C 25.445312 4.984375 25.328125 4.957031 25.207031 4.957031 C 25.085938 4.957031 24.972656 4.984375 24.863281 5.042969 C 24.753906 5.097656 24.667969 5.179688 24.597656 5.277344 L 15.5 18.523438 C 15.085938 19.097656 14.726562 19.699219 14.421875 20.335938 C 14.113281 20.96875 13.867188 21.628906 13.675781 22.308594 C 13.488281 22.984375 13.359375 23.675781 13.292969 24.378906 C 13.226562 25.082031 13.21875 25.78125 13.277344 26.484375 C 13.335938 27.1875 13.453125 27.882812 13.632812 28.5625 C 13.8125 29.246094 14.054688 29.90625 14.351562 30.542969 C 14.648438 31.183594 15 31.792969 15.40625 32.371094 C 15.808594 32.945312 16.261719 33.484375 16.761719 33.980469 Z M 29.566406 20.863281 C 29.566406 20.605469 29.621094 20.359375 29.726562 20.121094 C 29.828125 19.886719 29.976562 19.679688 30.167969 19.507812 C 30.363281 19.332031 30.582031 19.203125 30.824219 19.125 C 31.070312 19.042969 31.324219 19.015625 31.582031 19.039062 C 32.535156 19.128906 33.230469 19.984375 33.230469 20.941406 L 33.230469 21.179688 C 33.230469 21.492188 33.15625 21.785156 33.007812 22.058594 C 32.855469 22.335938 32.648438 22.554688 32.382812 22.722656 C 32.261719 22.804688 32.222656 22.914062 32.265625 23.054688 C 32.308594 23.191406 32.402344 23.261719 32.550781 23.257812 L 33.230469 23.257812 C 33.425781 23.257812 33.617188 23.296875 33.800781 23.371094 C 33.980469 23.449219 34.140625 23.554688 34.28125 23.695312 C 34.421875 23.835938 34.527344 23.996094 34.605469 24.179688 C 34.679688 24.359375 34.71875 24.550781 34.71875 24.746094 L 34.71875 28.695312 C 34.71875 28.90625 34.644531 29.085938 34.492188 29.238281 C 34.34375 29.386719 34.164062 29.460938 33.949219 29.460938 L 33.683594 29.460938 L 33.484375 31.644531 C 32.476562 33.070312 31.183594 34.164062 29.613281 34.925781 L 29.4375 32.992188 C 29.671875 32.894531 29.859375 32.738281 30.003906 32.527344 C 30.144531 32.3125 30.214844 32.078125 30.214844 31.824219 L 30.214844 26.378906 C 30.214844 26.097656 30.171875 25.824219 30.082031 25.558594 C 29.996094 25.292969 29.867188 25.050781 29.703125 24.824219 C 29.535156 24.597656 29.339844 24.40625 29.109375 24.242188 C 28.882812 24.078125 28.636719 23.957031 28.367188 23.875 C 28.664062 23.464844 29.0625 23.257812 29.570312 23.257812 L 30.25 23.257812 C 30.394531 23.257812 30.488281 23.1875 30.53125 23.050781 C 30.574219 22.910156 30.535156 22.800781 30.417969 22.71875 C 30.152344 22.550781 29.945312 22.332031 29.792969 22.054688 C 29.644531 21.78125 29.566406 21.488281 29.566406 21.175781 Z M 21.457031 12.722656 L 23.808594 12.722656 L 23.808594 10.371094 L 26.605469 10.371094 L 26.605469 12.722656 L 28.957031 12.722656 L 28.957031 15.519531 L 26.605469 15.519531 L 26.605469 17.871094 L 23.808594 17.871094 L 23.808594 15.519531 L 21.457031 15.519531 Z M 21.457031 12.722656 " fill-opacity="1" fill-rule="nonzero"/></g><path fill="#3071cd" d="M 27.644531 7.9375 L 31.613281 13.71875 C 32.089844 13.980469 32.546875 14.265625 32.984375 14.582031 C 33.425781 14.898438 33.84375 15.238281 34.242188 15.605469 C 34.640625 15.972656 35.015625 16.359375 35.367188 16.773438 C 35.714844 17.183594 36.039062 17.617188 36.339844 18.066406 C 36.636719 18.519531 36.90625 18.988281 37.148438 19.472656 C 37.390625 19.957031 37.601562 20.453125 37.78125 20.964844 C 37.960938 21.472656 38.109375 21.992188 38.226562 22.519531 C 38.34375 23.046875 38.429688 23.582031 38.484375 24.121094 C 38.535156 24.660156 38.554688 25.199219 38.542969 25.738281 C 38.527344 26.28125 38.480469 26.820312 38.402344 27.355469 C 38.324219 27.890625 38.214844 28.417969 38.070312 28.941406 C 37.925781 29.460938 37.753906 29.972656 37.546875 30.472656 C 37.34375 30.972656 37.105469 31.460938 36.84375 31.933594 C 36.578125 32.402344 36.285156 32.859375 35.964844 33.292969 C 35.644531 33.730469 35.300781 34.144531 34.929688 34.539062 C 34.558594 34.933594 34.167969 35.304688 33.75 35.652344 C 33.761719 35.671875 33.777344 35.691406 33.789062 35.714844 C 33.816406 35.777344 33.839844 35.832031 33.859375 35.898438 C 33.980469 35.878906 34.101562 35.867188 34.222656 35.867188 C 34.519531 35.859375 34.792969 35.929688 35.046875 36.078125 C 35.304688 36.226562 35.5 36.433594 35.640625 36.695312 C 35.699219 36.8125 35.746094 36.9375 35.777344 37.066406 C 36.128906 37.109375 36.433594 37.253906 36.691406 37.496094 C 36.949219 37.738281 37.109375 38.035156 37.171875 38.382812 C 37.785156 37.816406 38.351562 37.214844 38.875 36.570312 C 39.402344 35.925781 39.878906 35.246094 40.308594 34.535156 C 40.738281 33.824219 41.113281 33.085938 41.441406 32.320312 C 41.765625 31.554688 42.035156 30.773438 42.25 29.96875 C 42.460938 29.164062 42.621094 28.351562 42.71875 27.527344 C 42.816406 26.703125 42.859375 25.875 42.839844 25.042969 C 42.824219 24.210938 42.746094 23.386719 42.613281 22.566406 C 42.476562 21.746094 42.285156 20.9375 42.039062 20.144531 C 41.789062 19.351562 41.488281 18.582031 41.128906 17.832031 C 40.773438 17.082031 40.363281 16.359375 39.902344 15.667969 C 39.445312 14.972656 38.9375 14.316406 38.386719 13.695312 C 37.835938 13.074219 37.242188 12.496094 36.605469 11.957031 C 35.972656 11.421875 35.304688 10.929688 34.601562 10.488281 C 33.898438 10.042969 33.167969 9.652344 32.40625 9.3125 C 31.648438 8.972656 30.871094 8.691406 30.070312 8.460938 C 29.273438 8.230469 28.460938 8.058594 27.640625 7.945312 Z M 27.644531 7.9375 " fill-opacity="1" fill-rule="nonzero"/><g clip-path="url(#aad8e08616)"><path fill="#3071cd" d="M 14.382812 33.195312 C 14.105469 32.8125 13.851562 32.417969 13.621094 32.007812 C 13.386719 31.601562 13.175781 31.179688 12.988281 30.75 C 12.800781 30.316406 12.636719 29.878906 12.492188 29.429688 C 12.351562 28.980469 12.234375 28.523438 12.140625 28.0625 C 12.046875 27.601562 11.976562 27.136719 11.933594 26.667969 C 11.890625 26.199219 11.871094 25.730469 11.875 25.261719 C 11.878906 24.789062 11.910156 24.320312 11.964844 23.851562 C 12.019531 23.386719 12.101562 22.921875 12.203125 22.464844 C 12.308594 22.003906 12.4375 21.550781 12.589844 21.105469 C 12.742188 20.660156 12.914062 20.226562 13.113281 19.796875 C 13.3125 19.371094 13.53125 18.957031 13.773438 18.554688 C 14.015625 18.148438 14.277344 17.757812 14.5625 17.382812 C 14.847656 17.007812 15.148438 16.648438 15.46875 16.304688 C 15.792969 15.960938 16.128906 15.636719 16.484375 15.328125 C 16.84375 15.019531 17.214844 14.730469 17.601562 14.464844 C 17.988281 14.195312 18.386719 13.949219 18.800781 13.722656 L 22.769531 7.941406 C 22.195312 8.019531 21.625 8.128906 21.058594 8.265625 C 20.492188 8.402344 19.933594 8.570312 19.386719 8.761719 C 18.835938 8.953125 18.296875 9.171875 17.769531 9.417969 C 17.242188 9.664062 16.726562 9.933594 16.226562 10.230469 C 15.726562 10.527344 15.238281 10.847656 14.769531 11.191406 C 14.300781 11.535156 13.851562 11.902344 13.417969 12.292969 C 12.984375 12.683594 12.570312 13.089844 12.179688 13.519531 C 11.785156 13.949219 11.417969 14.398438 11.066406 14.867188 C 10.71875 15.332031 10.394531 15.816406 10.09375 16.3125 C 9.792969 16.8125 9.519531 17.324219 9.269531 17.851562 C 9.019531 18.375 8.796875 18.914062 8.601562 19.460938 C 8.402344 20.007812 8.234375 20.5625 8.09375 21.128906 C 7.949219 21.695312 7.835938 22.265625 7.75 22.839844 C 7.667969 23.414062 7.609375 23.996094 7.582031 24.574219 C 7.554688 25.15625 7.554688 25.738281 7.582031 26.320312 C 7.613281 26.902344 7.671875 27.480469 7.757812 28.054688 C 9.226562 30.039062 11.734375 32.039062 14.382812 33.195312 Z M 14.382812 33.195312 " fill-opacity="1" fill-rule="nonzero"/></g><path fill="#2cb2cd" d="M 34.65625 38.386719 C 35.554688 37.117188 34.503906 35.871094 32.722656 37.453125 C 33.589844 36.417969 32.902344 35.128906 31.589844 35.796875 C 30.703125 36.25 30.367188 36.90625 29.027344 37.726562 C 25.960938 39.601562 22.316406 38.652344 21.359375 37.699219 C 23.6875 37.464844 25.113281 36.800781 26.433594 35.640625 C 27.496094 34.703125 27.28125 32.382812 23.261719 34.105469 C 16.972656 36.800781 10.367188 33.207031 8.101562 29.792969 C 8.285156 30.5 8.507812 31.195312 8.777344 31.875 C 9.042969 32.550781 9.351562 33.210938 9.699219 33.851562 C 10.050781 34.496094 10.4375 35.109375 10.863281 35.703125 C 11.289062 36.296875 11.75 36.859375 12.242188 37.398438 C 12.738281 37.933594 13.265625 38.4375 13.824219 38.90625 C 14.382812 39.375 14.96875 39.8125 15.578125 40.207031 C 16.191406 40.605469 16.824219 40.964844 17.480469 41.285156 C 18.136719 41.601562 18.8125 41.878906 19.5 42.117188 C 20.191406 42.351562 20.894531 42.542969 21.609375 42.691406 C 22.324219 42.839844 23.046875 42.945312 23.773438 43.003906 C 24.5 43.0625 25.226562 43.078125 25.957031 43.046875 C 26.6875 43.015625 27.410156 42.9375 28.128906 42.816406 C 28.851562 42.695312 29.558594 42.53125 30.257812 42.320312 C 30.957031 42.113281 31.640625 41.859375 32.308594 41.566406 C 32.976562 41.273438 33.625 40.9375 34.25 40.566406 C 34.878906 40.191406 35.480469 39.777344 36.054688 39.332031 C 36.875 38.636719 35.914062 37.136719 34.65625 38.386719 Z M 34.65625 38.386719 " fill-opacity="1" fill-rule="nonzero"/><g fill="#3071cd" fill-opacity="1"><g transform="translate(53.324463, 22.042776)"><g><path d="M 0.652344 0 L 7.738281 0 C 9.78125 0 11.109375 -1.015625 11.109375 -2.566406 C 11.109375 -3.621094 10.417969 -4.480469 9.363281 -4.726562 L 9.363281 -4.742188 C 10.261719 -5.015625 10.847656 -5.78125 10.847656 -6.71875 C 10.847656 -8.246094 9.597656 -9.234375 7.683594 -9.234375 L 0.652344 -9.234375 Z M 2.460938 -5.3125 L 2.460938 -8.011719 L 7.242188 -8.011719 C 8.335938 -8.011719 9.039062 -7.488281 9.039062 -6.65625 C 9.039062 -5.835938 8.335938 -5.3125 7.253906 -5.3125 Z M 2.460938 -1.222656 L 2.460938 -4.179688 L 7.265625 -4.179688 C 8.492188 -4.179688 9.300781 -3.582031 9.300781 -2.710938 C 9.300781 -1.808594 8.492188 -1.222656 7.265625 -1.222656 Z M 2.460938 -1.222656 "/></g></g></g><g fill="#3071cd" fill-opacity="1"><g transform="translate(64.703024, 22.042776)"><g><path d="M 6.914062 0.324219 C 10.746094 0.324219 13.351562 -1.679688 13.351562 -4.609375 C 13.351562 -7.527344 10.746094 -9.558594 6.914062 -9.558594 C 3.101562 -9.558594 0.496094 -7.527344 0.496094 -4.609375 C 0.496094 -1.679688 3.101562 0.324219 6.914062 0.324219 Z M 6.914062 -1.082031 C 4.195312 -1.082031 2.304688 -2.527344 2.304688 -4.609375 C 2.304688 -6.695312 4.195312 -8.140625 6.914062 -8.140625 C 9.636719 -8.140625 11.539062 -6.695312 11.539062 -4.609375 C 11.539062 -2.527344 9.636719 -1.082031 6.914062 -1.082031 Z M 6.914062 -1.082031 "/></g></g></g><g fill="#3071cd" fill-opacity="1"><g transform="translate(78.542162, 22.042776)"><g><path d="M 6.914062 0.324219 C 10.746094 0.324219 13.351562 -1.679688 13.351562 -4.609375 C 13.351562 -7.527344 10.746094 -9.558594 6.914062 -9.558594 C 3.101562 -9.558594 0.496094 -7.527344 0.496094 -4.609375 C 0.496094 -1.679688 3.101562 0.324219 6.914062 0.324219 Z M 6.914062 -1.082031 C 4.195312 -1.082031 2.304688 -2.527344 2.304688 -4.609375 C 2.304688 -6.695312 4.195312 -8.140625 6.914062 -8.140625 C 9.636719 -8.140625 11.539062 -6.695312 11.539062 -4.609375 C 11.539062 -2.527344 9.636719 -1.082031 6.914062 -1.082031 Z M 6.914062 -1.082031 "/></g></g></g><g fill="#3071cd" fill-opacity="1"><g transform="translate(92.381301, 22.042776)"><g><path d="M 0.652344 0 L 2.460938 0 L 2.460938 -3.125 L 4.050781 -4.324219 L 8.269531 0 L 10.589844 0 L 5.339844 -5.339844 L 10.484375 -9.234375 L 8.023438 -9.234375 L 2.472656 -5.027344 L 2.460938 -5.027344 L 2.460938 -9.234375 L 0.652344 -9.234375 Z M 0.652344 0 "/></g></g></g><g fill="#3071cd" fill-opacity="1"><g transform="translate(102.965703, 22.042776)"><g><path d="M 0.652344 0 L 2.449219 0 L 2.449219 -9.234375 L 0.652344 -9.234375 Z M 0.652344 0 "/></g></g></g><g fill="#3071cd" fill-opacity="1"><g transform="translate(106.06421, 22.042776)"><g><path d="M 0.652344 0 L 2.394531 0 L 2.394531 -7.476562 L 2.410156 -7.476562 L 9.027344 0 L 11.292969 0 L 11.292969 -9.234375 L 9.535156 -9.234375 L 9.535156 -1.769531 L 9.519531 -1.769531 L 2.917969 -9.234375 L 0.652344 -9.234375 Z M 0.652344 0 "/></g></g></g><g fill="#3071cd" fill-opacity="1"><g transform="translate(118.002586, 22.042776)"><g><path d="M 6.617188 0.300781 C 8.832031 0.300781 10.652344 -0.546875 11.589844 -1.886719 L 11.605469 -1.886719 L 11.734375 0 L 13.195312 0 L 13.195312 -5.15625 L 4.753906 -5.15625 L 4.753906 -4 L 11.449219 -4 C 11.410156 -2.316406 9.480469 -1.042969 7.046875 -1.042969 C 4.285156 -1.042969 2.304688 -2.515625 2.304688 -4.585938 C 2.304688 -6.679688 4.128906 -8.152344 6.695312 -8.140625 C 8.363281 -8.140625 9.925781 -7.398438 10.289062 -6.34375 L 11.96875 -6.71875 C 11.488281 -8.375 9.234375 -9.519531 6.695312 -9.519531 C 3.0625 -9.519531 0.496094 -7.460938 0.496094 -4.546875 C 0.496094 -1.71875 3.035156 0.300781 6.617188 0.300781 Z M 6.617188 0.300781 "/></g></g></g><g fill="#3071cd" fill-opacity="1"><g transform="translate(131.646441, 22.042776)"><g/></g></g><g fill="#3071cd" fill-opacity="1"><g transform="translate(135.408919, 22.042776)"><g><path d="M 6.863281 0.300781 C 9.859375 0.300781 12.164062 -1.082031 12.789062 -3.257812 L 11.109375 -3.648438 C 10.640625 -2.097656 9.011719 -1.105469 6.890625 -1.105469 C 4.089844 -1.105469 2.304688 -2.472656 2.304688 -4.609375 C 2.304688 -6.746094 3.933594 -8.113281 6.484375 -8.113281 C 8.335938 -8.113281 9.78125 -7.242188 10.222656 -5.859375 L 11.863281 -6.34375 C 11.1875 -8.285156 9.078125 -9.519531 6.445312 -9.519531 C 2.800781 -9.519531 0.496094 -7.605469 0.496094 -4.609375 C 0.496094 -1.589844 2.96875 0.300781 6.863281 0.300781 Z M 6.863281 0.300781 "/></g></g></g><g fill="#3071cd" fill-opacity="1"><g transform="translate(148.545038, 22.042776)"><g><path d="M 0.0507812 0 L 1.941406 0 L 2.996094 -2.019531 L 8.777344 -2.019531 L 9.832031 0 L 11.734375 0 L 6.96875 -9.234375 L 4.859375 -9.234375 Z M 3.53125 -3.28125 L 5.886719 -7.917969 L 5.914062 -7.917969 L 8.257812 -3.28125 Z M 3.53125 -3.28125 "/></g></g></g><g fill="#3071cd" fill-opacity="1"><g transform="translate(160.327184, 22.042776)"><g><path d="M 10.300781 0.261719 C 11.019531 0.261719 11.683594 -0.0898438 12.074219 -0.574219 L 11.527344 -1.433594 C 11.332031 -1.132812 11.042969 -0.925781 10.757812 -0.925781 C 10.40625 -0.925781 10.222656 -1.171875 10.066406 -1.484375 L 9.417969 -2.800781 C 9.195312 -3.296875 8.894531 -3.671875 8.453125 -3.90625 L 8.453125 -3.921875 C 10.144531 -4.101562 11.1875 -5.09375 11.1875 -6.472656 C 11.1875 -8.179688 9.847656 -9.234375 7.683594 -9.234375 L 0.652344 -9.234375 L 0.652344 0 L 2.460938 0 L 2.460938 -3.582031 L 6.226562 -3.582031 C 6.875 -3.582031 7.421875 -3.179688 7.738281 -2.527344 L 8.441406 -1.027344 C 8.792969 -0.339844 9.324219 0.261719 10.300781 0.261719 Z M 2.460938 -4.832031 L 2.460938 -7.945312 L 7.304688 -7.945312 C 8.570312 -7.945312 9.378906 -7.332031 9.378906 -6.367188 C 9.378906 -5.445312 8.570312 -4.832031 7.304688 -4.832031 Z M 2.460938 -4.832031 "/></g></g></g><g fill="#3071cd" fill-opacity="1"><g transform="translate(172.395746, 22.042776)"><g><path d="M 0.652344 0 L 9.964844 0 L 9.964844 -1.316406 L 2.410156 -1.316406 L 2.410156 -4.140625 L 9.3125 -4.140625 L 9.3125 -5.351562 L 2.410156 -5.351562 L 2.410156 -7.90625 L 9.832031 -7.90625 L 9.832031 -9.234375 L 0.652344 -9.234375 Z M 0.652344 0 "/></g></g></g><g fill="#3071cd" fill-opacity="1"><g transform="translate(182.615625, 22.042776)"><g/></g></g><g fill="#3071cd" fill-opacity="1"><g transform="translate(186.378103, 22.042776)"><g><path d="M 0.652344 0 L 2.460938 0 L 2.460938 -4.140625 L 9.351562 -4.140625 L 9.351562 0 L 11.148438 0 L 11.148438 -9.234375 L 9.351562 -9.234375 L 9.351562 -5.507812 L 2.460938 -5.507812 L 2.460938 -9.234375 L 0.652344 -9.234375 Z M 0.652344 0 "/></g></g></g><g fill="#3071cd" fill-opacity="1"><g transform="translate(198.17326, 22.042776)"><g><path d="M 0.417969 0 L 9.753906 0 L 9.753906 -1.316406 L 2.265625 -1.316406 C 2.265625 -2.605469 2.878906 -3.191406 4.648438 -3.542969 L 6.394531 -3.882812 C 8.558594 -4.273438 9.429688 -5.027344 9.429688 -6.523438 C 9.429688 -8.386719 7.855469 -9.519531 5.523438 -9.519531 C 3.632812 -9.519531 1.757812 -8.714844 0.730469 -7.4375 L 1.574219 -6.304688 C 2.460938 -7.410156 3.945312 -8.140625 5.328125 -8.140625 C 6.71875 -8.140625 7.644531 -7.488281 7.644531 -6.550781 C 7.644531 -5.742188 7.136719 -5.339844 5.835938 -5.09375 L 4.15625 -4.78125 C 1.433594 -4.257812 0.429688 -3.269531 0.417969 -1.003906 Z M 0.417969 0 "/></g></g></g><g fill="#3071cd" fill-opacity="1"><g transform="translate(208.328042, 22.042776)"><g><path d="M 4.21875 0 L 6.03125 0 L 6.03125 -7.816406 L 10.171875 -7.816406 L 10.171875 -9.234375 L 0.078125 -9.234375 L 0.078125 -7.816406 L 4.21875 -7.816406 Z M 4.21875 0 "/></g></g></g><g fill="#2cb2cd" fill-opacity="1"><g transform="translate(105.394904, 35.589446)"><g><path d="M 5.308594 -5.289062 L 3.269531 -0.679688 L 1.242188 -5.289062 L 0.644531 -5.289062 L 0.644531 0 L 1.207031 0 L 1.207031 -4.179688 L 3.03125 0 L 3.5 0 L 5.34375 -4.160156 L 5.34375 0 L 5.898438 0 L 5.898438 -5.289062 Z M 5.308594 -5.289062 "/></g></g></g><g fill="#2cb2cd" fill-opacity="1"><g transform="translate(111.935544, 35.589446)"><g><path d="M 3.578125 -4.742188 L 3.578125 -5.289062 L 0.6875 -5.289062 L 0.6875 0 L 3.578125 0 L 3.578125 -0.546875 L 1.253906 -0.546875 L 1.253906 -2.371094 L 3.28125 -2.371094 L 3.28125 -2.917969 L 1.253906 -2.917969 L 1.253906 -4.742188 Z M 3.578125 -4.742188 "/></g></g></g><g fill="#2cb2cd" fill-opacity="1"><g transform="translate(116.043277, 35.589446)"><g><path d="M 0.644531 0 L 2.089844 0 C 3.542969 0 4.734375 -1.179688 4.734375 -2.644531 C 4.734375 -4.109375 3.542969 -5.289062 2.089844 -5.289062 L 0.644531 -5.289062 Z M 1.199219 -0.5625 L 1.199219 -4.726562 L 2.082031 -4.726562 C 3.253906 -4.726562 4.171875 -3.835938 4.171875 -2.644531 C 4.171875 -1.453125 3.253906 -0.5625 2.082031 -0.5625 Z M 1.199219 -0.5625 "/></g></g></g><g fill="#2cb2cd" fill-opacity="1"><g transform="translate(121.208797, 35.589446)"><g><path d="M 0.6875 0 L 1.253906 0 L 1.253906 -5.289062 L 0.6875 -5.289062 Z M 0.6875 0 "/></g></g></g><g fill="#2cb2cd" fill-opacity="1"><g transform="translate(123.139259, 35.589446)"><g><path d="M 3.148438 0.0703125 C 4.160156 0.0703125 5.042969 -0.484375 5.511719 -1.304688 L 5.027344 -1.578125 C 4.664062 -0.925781 3.957031 -0.492188 3.148438 -0.492188 C 1.957031 -0.492188 0.996094 -1.445312 0.996094 -2.644531 C 0.996094 -3.84375 1.957031 -4.796875 3.148438 -4.796875 C 3.957031 -4.796875 4.664062 -4.363281 5.027344 -3.710938 L 5.511719 -3.984375 C 5.042969 -4.804688 4.160156 -5.359375 3.148438 -5.359375 C 1.648438 -5.359375 0.433594 -4.144531 0.433594 -2.644531 C 0.433594 -1.144531 1.648438 0.0703125 3.148438 0.0703125 Z M 3.148438 0.0703125 "/></g></g></g><g fill="#2cb2cd" fill-opacity="1"><g transform="translate(128.939448, 35.589446)"><g><path d="M 3.835938 0 L 4.453125 0 L 2.539062 -5.289062 L 1.914062 -5.289062 L 0 0 L 0.617188 0 L 1.050781 -1.234375 L 3.402344 -1.234375 Z M 1.234375 -1.773438 L 2.230469 -4.621094 L 3.21875 -1.773438 Z M 1.234375 -1.773438 "/></g></g></g><g fill="#2cb2cd" fill-opacity="1"><g transform="translate(133.390961, 35.589446)"><g><path d="M 1.207031 -0.5625 L 1.207031 -5.289062 L 0.644531 -5.289062 L 0.644531 0 L 3.175781 0 L 3.175781 -0.5625 Z M 1.207031 -0.5625 "/></g></g></g><g fill="#2cb2cd" fill-opacity="1"><g transform="translate(136.643652, 35.589446)"><g/></g></g><g fill="#2cb2cd" fill-opacity="1"><g transform="translate(138.768038, 35.589446)"><g><path d="M 3.148438 0.0703125 C 4.160156 0.0703125 5.042969 -0.484375 5.511719 -1.304688 L 5.027344 -1.578125 C 4.664062 -0.925781 3.957031 -0.492188 3.148438 -0.492188 C 1.957031 -0.492188 0.996094 -1.445312 0.996094 -2.644531 C 0.996094 -3.84375 1.957031 -4.796875 3.148438 -4.796875 C 3.957031 -4.796875 4.664062 -4.363281 5.027344 -3.710938 L 5.511719 -3.984375 C 5.042969 -4.804688 4.160156 -5.359375 3.148438 -5.359375 C 1.648438 -5.359375 0.433594 -4.144531 0.433594 -2.644531 C 0.433594 -1.144531 1.648438 0.0703125 3.148438 0.0703125 Z M 3.148438 0.0703125 "/></g></g></g><g fill="#2cb2cd" fill-opacity="1"><g transform="translate(144.568227, 35.589446)"><g><path d="M 3.578125 -4.742188 L 3.578125 -5.289062 L 0.6875 -5.289062 L 0.6875 0 L 3.578125 0 L 3.578125 -0.546875 L 1.253906 -0.546875 L 1.253906 -2.371094 L 3.28125 -2.371094 L 3.28125 -2.917969 L 1.253906 -2.917969 L 1.253906 -4.742188 Z M 3.578125 -4.742188 "/></g></g></g><g fill="#2cb2cd" fill-opacity="1"><g transform="translate(148.67596, 35.589446)"><g><path d="M 4.445312 -5.289062 L 4.445312 -0.945312 L 1.171875 -5.289062 L 0.644531 -5.289062 L 0.644531 0 L 1.207031 0 L 1.207031 -4.347656 L 4.46875 0 L 5 0 L 5 -5.289062 Z M 4.445312 -5.289062 "/></g></g></g><g fill="#2cb2cd" fill-opacity="1"><g transform="translate(154.317484, 35.589446)"><g><path d="M 3.570312 -5.289062 L 0.078125 -5.289062 L 0.078125 -4.726562 L 1.542969 -4.726562 L 1.542969 0 L 2.105469 0 L 2.105469 -4.726562 L 3.570312 -4.726562 Z M 3.570312 -5.289062 "/></g></g></g><g fill="#2cb2cd" fill-opacity="1"><g transform="translate(157.966845, 35.589446)"><g><path d="M 3.578125 -4.742188 L 3.578125 -5.289062 L 0.6875 -5.289062 L 0.6875 0 L 3.578125 0 L 3.578125 -0.546875 L 1.253906 -0.546875 L 1.253906 -2.371094 L 3.28125 -2.371094 L 3.28125 -2.917969 L 1.253906 -2.917969 L 1.253906 -4.742188 Z M 3.578125 -4.742188 "/></g></g></g><g fill="#2cb2cd" fill-opacity="1"><g transform="translate(162.074577, 35.589446)"><g><path d="M 2.785156 -2.414062 C 3.484375 -2.511719 4.011719 -3.09375 4.011719 -3.808594 C 4.011719 -4.636719 3.351562 -5.289062 2.539062 -5.289062 L 0.644531 -5.289062 L 0.644531 0 L 1.207031 0 L 1.207031 -2.390625 L 2.203125 -2.390625 L 3.703125 0 L 4.347656 0 Z M 1.207031 -2.925781 L 1.207031 -4.726562 L 2.503906 -4.726562 C 3.03125 -4.726562 3.449219 -4.355469 3.449219 -3.828125 C 3.449219 -3.289062 3.042969 -2.925781 2.503906 -2.925781 Z M 1.207031 -2.925781 "/></g></g></g></svg>