<svg xmlns="http://www.w3.org/2000/svg" xmlns:xlink="http://www.w3.org/1999/xlink" width="500" zoomAndPan="magnify" viewBox="0 0 375 374.999991" height="500" preserveAspectRatio="xMidYMid meet" version="1.0"><defs><g/><clipPath id="4bf3a09851"><path d="M 74.480469 37.5 L 300.230469 37.5 L 300.230469 263.25 L 74.480469 263.25 Z M 74.480469 37.5 " clip-rule="nonzero"/></clipPath><clipPath id="5caa73f363"><path d="M 187.496094 37.5 C 125.078125 37.5 74.480469 88.097656 74.480469 150.515625 C 74.480469 212.933594 125.078125 263.53125 187.496094 263.53125 C 249.910156 263.53125 300.511719 212.933594 300.511719 150.515625 C 300.511719 88.097656 249.910156 37.5 187.496094 37.5 Z M 187.496094 37.5 " clip-rule="nonzero"/></clipPath><clipPath id="8d9699639f"><path d="M 79.761719 42.78125 L 295.011719 42.78125 L 295.011719 258.03125 L 79.761719 258.03125 Z M 79.761719 42.78125 " clip-rule="nonzero"/></clipPath><clipPath id="7724f5ee10"><path d="M 187.5 42.78125 C 127.996094 42.78125 79.761719 91.019531 79.761719 150.519531 C 79.761719 210.019531 127.996094 258.253906 187.5 258.253906 C 247 258.253906 295.234375 210.019531 295.234375 150.519531 C 295.234375 91.019531 247 42.78125 187.5 42.78125 Z M 187.5 42.78125 " clip-rule="nonzero"/></clipPath><clipPath id="6edce42df4"><path d="M 130 60.367188 L 242 60.367188 L 242 211 L 130 211 Z M 130 60.367188 " clip-rule="nonzero"/></clipPath></defs><g clip-path="url(#4bf3a09851)"><g clip-path="url(#5caa73f363)"><path stroke-linecap="butt" transform="matrix(0.75, 0, 0, 0.75, 74.478984, 37.499998)" fill="none" stroke-linejoin="miter" d="M 150.68949 0.00000328333 C 67.465526 0.00000328333 0.00198019 67.463549 0.00198019 150.687513 C 0.00198019 233.911477 67.465526 301.375023 150.68949 301.375023 C 233.908246 301.375023 301.377 233.911477 301.377 150.687513 C 301.377 67.463549 233.908246 0.00000328333 150.68949 0.00000328333 Z M 150.68949 0.00000328333 " stroke="#3071cd" stroke-width="2" stroke-opacity="1" stroke-miterlimit="4"/></g></g><g clip-path="url(#8d9699639f)"><g clip-path="url(#7724f5ee10)"><path stroke-linecap="butt" transform="matrix(0.75, 0, 0, 0.75, 79.762103, 42.783117)" fill="none" stroke-linejoin="miter" d="M 143.650538 -0.00248959 C 64.311992 -0.00248959 -0.000512683 64.315223 -0.000512683 143.648562 C -0.000512683 222.9819 64.311992 287.294404 143.650538 287.294404 C 222.983877 287.294404 287.296381 222.9819 287.296381 143.648562 C 287.296381 64.315223 222.983877 -0.00248959 143.650538 -0.00248959 Z M 143.650538 -0.00248959 " stroke="#3071cd" stroke-width="8" stroke-opacity="1" stroke-miterlimit="4"/></g></g><g clip-path="url(#6edce42df4)"><path fill="#2cb2cd" d="M 146.898438 194.242188 C 149.765625 194.894531 152.667969 195.230469 155.609375 195.253906 C 156.925781 195.253906 158.234375 195.1875 159.535156 195.085938 C 155.046875 192.054688 151.199219 188.355469 147.988281 183.996094 L 147.046875 173.398438 L 145.8125 173.398438 C 145.34375 173.398438 144.890625 173.308594 144.457031 173.128906 C 144.023438 172.949219 143.640625 172.695312 143.3125 172.363281 C 142.980469 172.03125 142.722656 171.648438 142.542969 171.214844 C 142.363281 170.78125 142.273438 170.332031 142.273438 169.863281 L 142.273438 151.636719 C 142.273438 151.1875 142.316406 150.738281 142.40625 150.296875 C 142.492188 149.855469 142.625 149.425781 142.796875 149.007812 C 142.96875 148.59375 143.179688 148.199219 143.429688 147.824219 C 143.679688 147.449219 143.964844 147.101562 144.28125 146.78125 C 144.601562 146.464844 144.949219 146.179688 145.324219 145.929688 C 145.699219 145.679688 146.09375 145.46875 146.511719 145.296875 C 146.925781 145.121094 147.355469 144.992188 147.796875 144.90625 C 148.238281 144.816406 148.6875 144.773438 149.136719 144.773438 L 152.277344 144.773438 C 152.574219 144.777344 152.84375 144.691406 153.085938 144.511719 C 153.324219 144.335938 153.488281 144.105469 153.578125 143.820312 C 153.664062 143.539062 153.660156 143.253906 153.558594 142.972656 C 153.460938 142.691406 153.285156 142.46875 153.039062 142.304688 C 152.4375 141.921875 151.894531 141.472656 151.410156 140.953125 C 150.925781 140.433594 150.511719 139.863281 150.167969 139.242188 C 149.824219 138.617188 149.566406 137.960938 149.390625 137.273438 C 149.214844 136.585938 149.125 135.886719 149.125 135.175781 L 149.125 133.742188 C 149.125 133.152344 149.1875 132.570312 149.308594 131.992188 C 149.429688 131.414062 149.613281 130.855469 149.851562 130.316406 C 150.089844 129.777344 150.382812 129.265625 150.726562 128.789062 C 151.074219 128.308594 151.464844 127.871094 151.902344 127.476562 C 152.339844 127.078125 152.8125 126.734375 153.324219 126.433594 C 153.832031 126.136719 154.367188 125.898438 154.929688 125.710938 C 155.488281 125.527344 156.0625 125.402344 156.648438 125.335938 C 157.234375 125.269531 157.824219 125.265625 158.410156 125.324219 C 162.808594 125.742188 166.027344 129.679688 166.027344 134.101562 L 166.027344 135.191406 C 166.027344 135.902344 165.941406 136.601562 165.765625 137.289062 C 165.589844 137.976562 165.328125 138.632812 164.988281 139.257812 C 164.644531 139.878906 164.230469 140.449219 163.746094 140.96875 C 163.257812 141.488281 162.714844 141.9375 162.117188 142.320312 C 161.871094 142.488281 161.703125 142.710938 161.605469 142.992188 C 161.507812 143.273438 161.503906 143.554688 161.589844 143.835938 C 161.679688 144.121094 161.84375 144.351562 162.082031 144.527344 C 162.320312 144.703125 162.585938 144.789062 162.882812 144.789062 L 166.023438 144.789062 C 167.125 144.792969 168.160156 145.042969 169.140625 145.546875 C 170.117188 146.050781 170.925781 146.75 171.570312 147.640625 C 170.957031 147.832031 170.363281 148.070312 169.789062 148.355469 C 169.210938 148.640625 168.664062 148.96875 168.140625 149.339844 C 167.617188 149.710938 167.128906 150.121094 166.671875 150.570312 C 166.214844 151.023438 165.792969 151.503906 165.414062 152.019531 C 165.03125 152.539062 164.695312 153.082031 164.398438 153.648438 C 164.105469 154.21875 163.855469 154.808594 163.65625 155.417969 C 163.457031 156.027344 163.304688 156.648438 163.203125 157.28125 C 163.097656 157.917969 163.046875 158.554688 163.046875 159.195312 L 163.046875 184.28125 C 163.046875 184.859375 163.132812 185.421875 163.300781 185.972656 C 163.464844 186.527344 163.710938 187.042969 164.03125 187.519531 C 164.347656 188 164.730469 188.421875 165.175781 188.789062 C 165.621094 189.15625 166.105469 189.453125 166.636719 189.675781 L 166.234375 194.136719 C 168.734375 193.605469 171.175781 192.878906 173.558594 191.960938 L 172.519531 186.6875 L 168.898438 186.6875 C 168.578125 186.6875 168.269531 186.628906 167.976562 186.507812 C 167.679688 186.386719 167.421875 186.210938 167.195312 185.984375 C 166.96875 185.757812 166.792969 185.5 166.671875 185.203125 C 166.550781 184.910156 166.492188 184.601562 166.492188 184.28125 L 166.492188 159.179688 C 166.492188 158.609375 166.546875 158.046875 166.660156 157.488281 C 166.769531 156.929688 166.933594 156.390625 167.152344 155.863281 C 167.371094 155.335938 167.636719 154.839844 167.953125 154.367188 C 168.269531 153.890625 168.628906 153.453125 169.03125 153.050781 C 169.433594 152.648438 169.871094 152.292969 170.347656 151.976562 C 170.820312 151.660156 171.320312 151.390625 171.84375 151.175781 C 172.371094 150.957031 172.910156 150.792969 173.46875 150.683594 C 174.027344 150.570312 174.589844 150.515625 175.160156 150.515625 L 179.128906 150.515625 C 179.503906 150.519531 179.84375 150.40625 180.148438 150.183594 C 180.453125 149.964844 180.660156 149.671875 180.769531 149.3125 C 180.882812 148.953125 180.875 148.597656 180.75 148.242188 C 180.625 147.886719 180.40625 147.601562 180.097656 147.390625 C 179.339844 146.910156 178.652344 146.339844 178.039062 145.6875 C 177.421875 145.03125 176.898438 144.3125 176.46875 143.523438 C 176.035156 142.734375 175.707031 141.90625 175.484375 141.039062 C 175.261719 140.167969 175.148438 139.285156 175.148438 138.386719 L 175.148438 136.558594 C 175.148438 135.855469 175.21875 135.160156 175.355469 134.472656 C 175.492188 133.785156 175.695312 133.117188 175.964844 132.46875 C 176.230469 131.824219 176.5625 131.207031 176.949219 130.625 C 177.339844 130.042969 177.78125 129.503906 178.277344 129.007812 C 178.773438 128.511719 179.316406 128.070312 179.898438 127.679688 C 180.480469 127.289062 181.097656 126.960938 181.746094 126.695312 C 182.394531 126.425781 183.0625 126.222656 183.75 126.089844 C 184.4375 125.953125 185.132812 125.882812 185.832031 125.886719 C 185.886719 125.886719 185.941406 125.886719 185.996094 125.886719 C 186.050781 125.886719 186.105469 125.886719 186.160156 125.886719 C 186.859375 125.882812 187.554688 125.953125 188.242188 126.085938 C 188.929688 126.222656 189.597656 126.425781 190.246094 126.691406 C 190.894531 126.960938 191.511719 127.289062 192.09375 127.679688 C 192.679688 128.066406 193.21875 128.507812 193.714844 129.003906 C 194.210938 129.5 194.65625 130.039062 195.042969 130.621094 C 195.433594 131.207031 195.765625 131.820312 196.03125 132.46875 C 196.300781 133.117188 196.503906 133.785156 196.640625 134.472656 C 196.777344 135.160156 196.847656 135.855469 196.847656 136.558594 L 196.847656 138.367188 C 196.847656 139.265625 196.738281 140.152344 196.515625 141.019531 C 196.292969 141.890625 195.964844 142.71875 195.53125 143.507812 C 195.101562 144.292969 194.578125 145.015625 193.964844 145.671875 C 193.347656 146.324219 192.664062 146.894531 191.90625 147.375 C 191.59375 147.585938 191.375 147.867188 191.25 148.222656 C 191.125 148.578125 191.121094 148.933594 191.230469 149.292969 C 191.339844 149.652344 191.546875 149.945312 191.851562 150.167969 C 192.152344 150.390625 192.492188 150.5 192.867188 150.5 L 196.839844 150.5 C 197.410156 150.5 197.972656 150.554688 198.53125 150.664062 C 199.089844 150.777344 199.632812 150.941406 200.15625 151.160156 C 200.683594 151.375 201.183594 151.644531 201.65625 151.957031 C 202.128906 152.273438 202.566406 152.632812 202.96875 153.035156 C 203.371094 153.4375 203.730469 153.875 204.046875 154.347656 C 204.363281 154.820312 204.632812 155.320312 204.847656 155.847656 C 205.066406 156.371094 205.230469 156.914062 205.34375 157.472656 C 205.453125 158.03125 205.511719 158.59375 205.511719 159.164062 L 205.511719 184.28125 C 205.511719 184.601562 205.449219 184.90625 205.328125 185.203125 C 205.207031 185.496094 205.03125 185.757812 204.804688 185.980469 C 204.578125 186.207031 204.320312 186.378906 204.023438 186.5 C 203.730469 186.625 203.421875 186.683594 203.105469 186.683594 L 199.480469 186.683594 L 197.808594 195.101562 C 198.402344 198.464844 197.003906 202.273438 194.109375 204.820312 C 191.65625 207.003906 188.980469 208.867188 186.082031 210.410156 C 191.332031 210.398438 196.476562 209.648438 201.511719 208.164062 C 203.738281 206.785156 205.808594 205.203125 207.71875 203.417969 C 209.457031 201.71875 211.394531 200.292969 213.53125 199.140625 C 215.0625 198.320312 216.695312 197.894531 218.429688 197.867188 C 219.136719 197.867188 219.832031 197.957031 220.515625 198.132812 C 221.871094 197.039062 223.175781 195.882812 224.425781 194.664062 C 225.671875 193.445312 226.863281 192.171875 227.988281 190.84375 C 229.117188 189.511719 230.179688 188.128906 231.175781 186.699219 C 232.171875 185.265625 233.101562 183.792969 233.957031 182.273438 C 234.8125 180.753906 235.59375 179.195312 236.304688 177.601562 C 237.011719 176.007812 237.644531 174.382812 238.199219 172.730469 C 238.753906 171.078125 239.230469 169.402344 239.625 167.703125 C 240.019531 166.003906 240.332031 164.289062 240.566406 162.5625 C 240.800781 160.832031 240.949219 159.097656 241.019531 157.351562 C 241.085938 155.609375 241.070312 153.867188 240.972656 152.125 C 240.875 150.382812 240.695312 148.652344 240.433594 146.925781 C 240.171875 145.203125 239.828125 143.496094 239.40625 141.800781 C 238.980469 140.109375 238.476562 138.441406 237.894531 136.796875 C 237.3125 135.15625 236.652344 133.542969 235.917969 131.960938 C 235.183594 130.378906 234.371094 128.835938 233.492188 127.332031 C 232.609375 125.824219 231.65625 124.367188 230.636719 122.953125 L 188.667969 61.847656 C 188.511719 61.621094 188.328125 61.414062 188.121094 61.230469 C 187.914062 61.046875 187.6875 60.890625 187.445312 60.761719 C 187.199219 60.632812 186.941406 60.535156 186.671875 60.46875 C 186.402344 60.402344 186.132812 60.367188 185.855469 60.367188 C 185.578125 60.367188 185.304688 60.402344 185.035156 60.46875 C 184.765625 60.535156 184.507812 60.632812 184.265625 60.761719 C 184.019531 60.890625 183.792969 61.046875 183.585938 61.230469 C 183.378906 61.414062 183.195312 61.621094 183.039062 61.847656 L 141.070312 122.953125 C 140.121094 124.265625 139.230469 125.621094 138.398438 127.015625 C 137.566406 128.410156 136.800781 129.839844 136.09375 131.300781 C 135.390625 132.765625 134.753906 134.253906 134.179688 135.773438 C 133.605469 137.292969 133.101562 138.832031 132.667969 140.394531 C 132.230469 141.960938 131.863281 143.539062 131.566406 145.136719 C 131.269531 146.730469 131.042969 148.335938 130.890625 149.953125 C 130.734375 151.570312 130.652344 153.1875 130.640625 154.8125 C 130.632812 156.433594 130.691406 158.054688 130.824219 159.671875 C 130.957031 161.289062 131.160156 162.898438 131.433594 164.5 C 131.707031 166.097656 132.054688 167.683594 132.46875 169.253906 C 132.882812 170.820312 133.367188 172.371094 133.917969 173.894531 C 134.46875 175.421875 135.089844 176.921875 135.773438 178.394531 C 136.457031 179.867188 137.207031 181.304688 138.015625 182.710938 C 138.828125 184.117188 139.699219 185.484375 140.632812 186.8125 C 141.566406 188.140625 142.554688 189.425781 143.601562 190.664062 C 144.648438 191.90625 145.75 193.097656 146.898438 194.242188 Z M 205.96875 133.742188 C 205.96875 133.152344 206.027344 132.570312 206.152344 131.992188 C 206.273438 131.414062 206.453125 130.855469 206.691406 130.316406 C 206.929688 129.777344 207.222656 129.265625 207.570312 128.789062 C 207.914062 128.308594 208.304688 127.871094 208.742188 127.476562 C 209.179688 127.078125 209.65625 126.734375 210.164062 126.433594 C 210.675781 126.136719 211.210938 125.898438 211.769531 125.710938 C 212.332031 125.527344 212.902344 125.402344 213.492188 125.335938 C 214.078125 125.269531 214.664062 125.265625 215.25 125.324219 C 219.648438 125.742188 222.871094 129.679688 222.871094 134.101562 L 222.871094 135.191406 C 222.871094 135.902344 222.78125 136.601562 222.605469 137.289062 C 222.429688 137.976562 222.171875 138.632812 221.828125 139.257812 C 221.488281 139.878906 221.074219 140.449219 220.585938 140.96875 C 220.101562 141.488281 219.558594 141.9375 218.957031 142.320312 C 218.710938 142.484375 218.535156 142.710938 218.4375 142.988281 C 218.335938 143.269531 218.332031 143.554688 218.417969 143.839844 C 218.507812 144.125 218.671875 144.355469 218.910156 144.53125 C 219.152344 144.707031 219.421875 144.792969 219.71875 144.789062 L 222.859375 144.789062 C 223.308594 144.789062 223.757812 144.835938 224.199219 144.921875 C 224.640625 145.011719 225.070312 145.140625 225.484375 145.3125 C 225.902344 145.484375 226.296875 145.695312 226.671875 145.945312 C 227.046875 146.195312 227.394531 146.480469 227.710938 146.800781 C 228.03125 147.117188 228.316406 147.464844 228.566406 147.839844 C 228.816406 148.214844 229.027344 148.609375 229.199219 149.027344 C 229.371094 149.441406 229.503906 149.871094 229.589844 150.3125 C 229.679688 150.757812 229.722656 151.203125 229.722656 151.652344 L 229.722656 169.863281 C 229.722656 170.332031 229.632812 170.78125 229.453125 171.214844 C 229.273438 171.648438 229.015625 172.03125 228.6875 172.363281 C 228.355469 172.695312 227.972656 172.949219 227.539062 173.128906 C 227.105469 173.308594 226.652344 173.398438 226.183594 173.398438 L 224.949219 173.398438 L 224.039062 183.464844 C 221.746094 186.699219 219.085938 189.597656 216.0625 192.160156 C 213.035156 194.722656 209.738281 196.867188 206.167969 198.59375 L 205.363281 189.6875 C 205.894531 189.464844 206.382812 189.167969 206.828125 188.800781 C 207.269531 188.433594 207.652344 188.011719 207.972656 187.53125 C 208.292969 187.050781 208.535156 186.535156 208.703125 185.984375 C 208.871094 185.433594 208.953125 184.871094 208.957031 184.292969 L 208.957031 159.179688 C 208.953125 158.539062 208.902344 157.898438 208.800781 157.265625 C 208.699219 156.632812 208.546875 156.011719 208.34375 155.402344 C 208.144531 154.792969 207.898438 154.203125 207.601562 153.632812 C 207.308594 153.0625 206.96875 152.519531 206.589844 152.003906 C 206.207031 151.488281 205.789062 151.003906 205.332031 150.554688 C 204.875 150.105469 204.382812 149.695312 203.859375 149.324219 C 203.339844 148.953125 202.789062 148.625 202.214844 148.339844 C 201.640625 148.054688 201.046875 147.816406 200.433594 147.625 C 201.074219 146.730469 201.882812 146.035156 202.863281 145.53125 C 203.839844 145.027344 204.878906 144.777344 205.976562 144.773438 L 209.117188 144.773438 C 209.417969 144.777344 209.6875 144.691406 209.925781 144.511719 C 210.167969 144.335938 210.332031 144.105469 210.417969 143.820312 C 210.507812 143.539062 210.5 143.253906 210.402344 142.972656 C 210.300781 142.691406 210.128906 142.46875 209.878906 142.304688 C 209.28125 141.921875 208.738281 141.472656 208.25 140.953125 C 207.765625 140.433594 207.351562 139.863281 207.007812 139.242188 C 206.667969 138.617188 206.410156 137.960938 206.230469 137.273438 C 206.054688 136.585938 205.96875 135.886719 205.96875 135.175781 Z M 168.554688 96.195312 L 179.40625 96.195312 L 179.40625 85.335938 L 192.300781 85.335938 L 192.300781 96.1875 L 203.148438 96.1875 L 203.148438 109.082031 L 192.300781 109.082031 L 192.300781 119.929688 L 179.40625 119.929688 L 179.40625 109.082031 L 168.554688 109.082031 Z M 168.554688 96.195312 " fill-opacity="1" fill-rule="nonzero"/></g><path fill="#3071cd" d="M 197.085938 74.117188 L 215.410156 100.78125 C 216.503906 101.378906 217.578125 102.011719 218.632812 102.675781 C 219.6875 103.339844 220.722656 104.035156 221.734375 104.761719 C 222.746094 105.488281 223.738281 106.246094 224.703125 107.03125 C 225.671875 107.820312 226.613281 108.636719 227.53125 109.480469 C 228.449219 110.324219 229.339844 111.195312 230.203125 112.09375 C 231.066406 112.992188 231.902344 113.917969 232.710938 114.867188 C 233.519531 115.816406 234.296875 116.789062 235.046875 117.785156 C 235.796875 118.78125 236.515625 119.800781 237.203125 120.839844 C 237.886719 121.882812 238.542969 122.941406 239.164062 124.023438 C 239.789062 125.101562 240.375 126.199219 240.933594 127.316406 C 241.488281 128.433594 242.007812 129.566406 242.496094 130.710938 C 242.984375 131.859375 243.433594 133.023438 243.851562 134.195312 C 244.265625 135.371094 244.648438 136.558594 244.992188 137.757812 C 245.335938 138.957031 245.640625 140.164062 245.914062 141.378906 C 246.183594 142.597656 246.417969 143.820312 246.613281 145.054688 C 246.808594 146.285156 246.96875 147.519531 247.085938 148.761719 C 247.207031 150.003906 247.292969 151.246094 247.335938 152.492188 C 247.382812 153.738281 247.390625 154.984375 247.359375 156.230469 C 247.328125 157.476562 247.261719 158.71875 247.152344 159.960938 C 247.046875 161.203125 246.902344 162.441406 246.722656 163.675781 C 246.539062 164.910156 246.320312 166.136719 246.066406 167.355469 C 245.808594 168.578125 245.515625 169.789062 245.1875 170.992188 C 244.855469 172.191406 244.492188 173.382812 244.089844 174.5625 C 243.6875 175.746094 243.25 176.910156 242.777344 178.066406 C 242.300781 179.21875 241.792969 180.355469 241.253906 181.480469 C 240.710938 182.601562 240.132812 183.707031 239.523438 184.792969 C 238.914062 185.882812 238.273438 186.949219 237.597656 187.996094 C 236.921875 189.046875 236.21875 190.074219 235.480469 191.078125 C 234.742188 192.085938 233.976562 193.066406 233.179688 194.027344 C 232.382812 194.984375 231.558594 195.917969 230.703125 196.828125 C 229.851562 197.734375 228.96875 198.617188 228.0625 199.472656 C 227.15625 200.328125 226.222656 201.15625 225.265625 201.953125 C 225.320312 202.050781 225.382812 202.144531 225.433594 202.246094 C 225.558594 202.523438 225.671875 202.792969 225.769531 203.089844 C 226.324219 202.996094 226.878906 202.949219 227.441406 202.949219 C 228.109375 202.929688 228.765625 203.003906 229.414062 203.171875 C 230.058594 203.335938 230.671875 203.589844 231.25 203.925781 C 231.824219 204.261719 232.34375 204.671875 232.808594 205.152344 C 233.269531 205.632812 233.660156 206.167969 233.972656 206.757812 C 234.257812 207.304688 234.46875 207.878906 234.613281 208.476562 C 235.402344 208.578125 236.15625 208.796875 236.875 209.136719 C 237.59375 209.472656 238.242188 209.917969 238.820312 210.460938 C 239.398438 211.007812 239.878906 211.628906 240.257812 212.328125 C 240.640625 213.023438 240.902344 213.765625 241.046875 214.546875 C 242.453125 213.246094 243.8125 211.898438 245.121094 210.503906 C 246.433594 209.109375 247.695312 207.671875 248.90625 206.1875 C 250.113281 204.703125 251.269531 203.175781 252.371094 201.613281 C 253.472656 200.046875 254.519531 198.445312 255.507812 196.804688 C 256.496094 195.164062 257.425781 193.492188 258.296875 191.789062 C 259.167969 190.082031 259.980469 188.351562 260.726562 186.589844 C 261.476562 184.828125 262.164062 183.039062 262.785156 181.230469 C 263.40625 179.417969 263.964844 177.589844 264.460938 175.738281 C 264.953125 173.890625 265.382812 172.023438 265.742188 170.144531 C 266.105469 168.265625 266.398438 166.375 266.628906 164.472656 C 266.855469 162.574219 267.019531 160.667969 267.113281 158.753906 C 267.207031 156.839844 267.234375 154.929688 267.191406 153.015625 C 267.152344 151.101562 267.042969 149.191406 266.867188 147.285156 C 266.691406 145.378906 266.449219 143.480469 266.140625 141.589844 C 265.828125 139.699219 265.453125 137.824219 265.011719 135.960938 C 264.570312 134.097656 264.0625 132.253906 263.488281 130.425781 C 262.917969 128.601562 262.28125 126.796875 261.582031 125.015625 C 260.882812 123.230469 260.121094 121.476562 259.296875 119.746094 C 258.472656 118.019531 257.589844 116.324219 256.648438 114.65625 C 255.703125 112.992188 254.703125 111.359375 253.644531 109.765625 C 252.585938 108.167969 251.472656 106.613281 250.304688 105.09375 C 249.136719 103.578125 247.917969 102.105469 246.644531 100.675781 C 245.375 99.242188 244.054688 97.859375 242.683594 96.519531 C 241.3125 95.183594 239.898438 93.894531 238.4375 92.660156 C 236.976562 91.421875 235.472656 90.234375 233.929688 89.105469 C 232.386719 87.972656 230.804688 86.898438 229.183594 85.875 C 227.5625 84.855469 225.910156 83.894531 224.222656 82.992188 C 222.535156 82.089844 220.816406 81.246094 219.070312 80.464844 C 217.320312 79.679688 215.546875 78.960938 213.75 78.304688 C 211.953125 77.648438 210.132812 77.054688 208.292969 76.527344 C 206.453125 75.996094 204.597656 75.535156 202.722656 75.136719 C 200.851562 74.738281 198.964844 74.40625 197.070312 74.140625 Z M 197.085938 74.117188 " fill-opacity="1" fill-rule="nonzero"/><path fill="#3071cd" d="M 135.917969 190.621094 C 135.285156 189.742188 134.675781 188.84375 134.089844 187.933594 C 133.503906 187.019531 132.941406 186.09375 132.40625 185.148438 C 131.867188 184.207031 131.359375 183.25 130.871094 182.28125 C 130.386719 181.3125 129.925781 180.328125 129.492188 179.335938 C 129.058594 178.339844 128.648438 177.335938 128.269531 176.320312 C 127.886719 175.304688 127.535156 174.28125 127.207031 173.246094 C 126.878906 172.210938 126.582031 171.167969 126.308594 170.121094 C 126.039062 169.070312 125.792969 168.011719 125.578125 166.949219 C 125.363281 165.886719 125.175781 164.820312 125.015625 163.746094 C 124.855469 162.671875 124.726562 161.597656 124.625 160.515625 C 124.519531 159.4375 124.449219 158.355469 124.402344 157.269531 C 124.359375 156.1875 124.339844 155.101562 124.355469 154.019531 C 124.367188 152.933594 124.40625 151.851562 124.476562 150.769531 C 124.546875 149.683594 124.644531 148.605469 124.773438 147.527344 C 124.898438 146.449219 125.054688 145.378906 125.238281 144.308594 C 125.421875 143.238281 125.632812 142.175781 125.871094 141.117188 C 126.113281 140.058594 126.378906 139.007812 126.675781 137.964844 C 126.972656 136.921875 127.292969 135.886719 127.644531 134.859375 C 127.996094 133.835938 128.371094 132.816406 128.777344 131.8125 C 129.179688 130.804688 129.609375 129.808594 130.066406 128.824219 C 130.523438 127.839844 131.007812 126.871094 131.515625 125.910156 C 132.023438 124.953125 132.554688 124.007812 133.113281 123.078125 C 133.671875 122.148438 134.253906 121.234375 134.863281 120.335938 C 135.46875 119.4375 136.097656 118.554688 136.75 117.6875 C 137.40625 116.820312 138.082031 115.972656 138.777344 115.144531 C 139.476562 114.3125 140.195312 113.5 140.9375 112.710938 C 141.679688 111.917969 142.441406 111.144531 143.222656 110.394531 C 144.003906 109.640625 144.804688 108.910156 145.625 108.203125 C 146.445312 107.492188 147.285156 106.804688 148.140625 106.140625 C 149 105.476562 149.871094 104.832031 150.761719 104.214844 C 151.652344 103.59375 152.558594 103 153.484375 102.429688 C 154.40625 101.859375 155.34375 101.3125 156.292969 100.792969 L 174.617188 74.125 C 173.289062 74.3125 171.964844 74.53125 170.644531 74.78125 C 169.328125 75.035156 168.015625 75.316406 166.714844 75.632812 C 165.410156 75.949219 164.113281 76.296875 162.828125 76.679688 C 161.539062 77.058594 160.261719 77.46875 158.996094 77.914062 C 157.730469 78.355469 156.476562 78.832031 155.234375 79.335938 C 153.988281 79.839844 152.761719 80.375 151.542969 80.941406 C 150.328125 81.507812 149.125 82.105469 147.9375 82.730469 C 146.75 83.355469 145.582031 84.011719 144.425781 84.691406 C 143.269531 85.375 142.132812 86.089844 141.015625 86.828125 C 139.894531 87.566406 138.792969 88.332031 137.710938 89.128906 C 136.628906 89.921875 135.570312 90.742188 134.527344 91.589844 C 133.488281 92.433594 132.46875 93.304688 131.46875 94.203125 C 130.472656 95.097656 129.496094 96.019531 128.542969 96.964844 C 127.589844 97.910156 126.660156 98.878906 125.757812 99.867188 C 124.851562 100.859375 123.972656 101.871094 123.117188 102.90625 C 122.261719 103.941406 121.433594 104.996094 120.632812 106.070312 C 119.828125 107.144531 119.054688 108.242188 118.304688 109.355469 C 117.554688 110.46875 116.835938 111.597656 116.144531 112.75 C 115.449219 113.898438 114.789062 115.0625 114.152344 116.246094 C 113.515625 117.425781 112.910156 118.625 112.335938 119.835938 C 111.761719 121.046875 111.214844 122.273438 110.699219 123.511719 C 110.183594 124.75 109.699219 126.003906 109.246094 127.265625 C 108.792969 128.527344 108.371094 129.800781 107.980469 131.085938 C 107.589844 132.367188 107.230469 133.660156 106.90625 134.960938 C 106.578125 136.265625 106.285156 137.574219 106.023438 138.886719 C 105.761719 140.203125 105.53125 141.527344 105.332031 142.851562 C 105.136719 144.179688 104.972656 145.511719 104.84375 146.847656 C 104.710938 148.183594 104.613281 149.519531 104.550781 150.859375 C 104.484375 152.199219 104.453125 153.542969 104.453125 154.882812 C 104.457031 156.226562 104.492188 157.566406 104.558594 158.90625 C 104.625 160.246094 104.726562 161.585938 104.859375 162.917969 C 104.996094 164.253906 105.160156 165.585938 105.363281 166.910156 C 112.132812 176.070312 123.710938 185.285156 135.917969 190.621094 Z M 135.917969 190.621094 " fill-opacity="1" fill-rule="nonzero"/><path fill="#2cb2cd" d="M 229.4375 214.566406 C 233.574219 208.710938 228.730469 202.96875 220.515625 210.269531 C 224.519531 205.496094 221.351562 199.542969 215.300781 202.621094 C 211.207031 204.707031 209.652344 207.742188 203.480469 211.519531 C 189.332031 220.171875 172.519531 215.785156 168.109375 211.398438 C 178.832031 210.3125 185.417969 207.253906 191.507812 201.894531 C 196.40625 197.570312 195.421875 186.878906 176.878906 194.820312 C 147.867188 207.25 117.398438 190.671875 106.957031 174.933594 C 107.375 176.5625 107.839844 178.175781 108.359375 179.777344 C 108.875 181.375 109.441406 182.960938 110.058594 184.523438 C 110.675781 186.089844 111.339844 187.632812 112.050781 189.15625 C 112.761719 190.679688 113.519531 192.179688 114.324219 193.65625 C 115.128906 195.132812 115.976562 196.585938 116.871094 198.007812 C 117.765625 199.433594 118.703125 200.828125 119.683594 202.195312 C 120.664062 203.558594 121.683594 204.894531 122.75 206.195312 C 123.8125 207.5 124.914062 208.769531 126.054688 210.003906 C 127.199219 211.238281 128.378906 212.433594 129.59375 213.597656 C 130.808594 214.757812 132.058594 215.878906 133.347656 216.964844 C 134.632812 218.046875 135.949219 219.089844 137.300781 220.09375 C 138.648438 221.09375 140.03125 222.054688 141.441406 222.972656 C 142.847656 223.886719 144.285156 224.761719 145.75 225.589844 C 147.214844 226.414062 148.703125 227.195312 150.214844 227.933594 C 151.726562 228.667969 153.257812 229.355469 154.816406 229.996094 C 156.371094 230.636719 157.941406 231.230469 159.535156 231.773438 C 161.125 232.316406 162.730469 232.808594 164.355469 233.25 C 165.976562 233.695312 167.609375 234.085938 169.257812 234.429688 C 170.902344 234.773438 172.558594 235.0625 174.222656 235.300781 C 175.886719 235.542969 177.558594 235.730469 179.234375 235.867188 C 180.910156 236 182.589844 236.085938 184.269531 236.117188 C 185.949219 236.148438 187.632812 236.128906 189.3125 236.058594 C 190.992188 235.984375 192.667969 235.863281 194.339844 235.6875 C 196.011719 235.511719 197.679688 235.28125 199.335938 235.003906 C 200.996094 234.722656 202.640625 234.394531 204.28125 234.011719 C 205.917969 233.632812 207.542969 233.199219 209.152344 232.71875 C 210.765625 232.238281 212.359375 231.707031 213.9375 231.125 C 215.515625 230.542969 217.074219 229.914062 218.613281 229.238281 C 220.152344 228.5625 221.667969 227.835938 223.164062 227.066406 C 224.65625 226.292969 226.125 225.476562 227.570312 224.617188 C 229.015625 223.753906 230.429688 222.847656 231.816406 221.898438 C 233.203125 220.945312 234.5625 219.957031 235.886719 218.921875 C 239.664062 215.714844 235.238281 208.792969 229.4375 214.566406 Z M 229.4375 214.566406 " fill-opacity="1" fill-rule="nonzero"/><g fill="#3071cd" fill-opacity="1"><g transform="translate(0.749091, 290.258539)"><g><path d="M 1.472656 0 L 17.484375 0 C 22.105469 0 25.109375 -2.296875 25.109375 -5.800781 C 25.109375 -8.183594 23.550781 -10.125 21.164062 -10.683594 L 21.164062 -10.714844 C 23.195312 -11.332031 24.519531 -13.070312 24.519531 -15.1875 C 24.519531 -18.632812 21.695312 -20.871094 17.367188 -20.871094 L 1.472656 -20.871094 Z M 5.5625 -12.011719 L 5.5625 -18.101562 L 16.367188 -18.101562 C 18.839844 -18.101562 20.429688 -16.925781 20.429688 -15.042969 C 20.429688 -13.1875 18.839844 -12.011719 16.394531 -12.011719 Z M 5.5625 -2.765625 L 5.5625 -9.449219 L 16.425781 -9.449219 C 19.191406 -9.449219 21.015625 -8.09375 21.015625 -6.121094 C 21.015625 -4.089844 19.191406 -2.765625 16.425781 -2.765625 Z M 5.5625 -2.765625 "/></g></g></g><g fill="#3071cd" fill-opacity="1"><g transform="translate(26.465836, 290.258539)"><g><path d="M 15.628906 0.734375 C 24.285156 0.734375 30.171875 -3.796875 30.171875 -10.421875 C 30.171875 -17.015625 24.285156 -21.605469 15.628906 -21.605469 C 7.003906 -21.605469 1.117188 -17.015625 1.117188 -10.421875 C 1.117188 -3.796875 7.003906 0.734375 15.628906 0.734375 Z M 15.628906 -2.441406 C 9.476562 -2.441406 5.210938 -5.710938 5.210938 -10.421875 C 5.210938 -15.128906 9.476562 -18.398438 15.628906 -18.398438 C 21.78125 -18.398438 26.082031 -15.128906 26.082031 -10.421875 C 26.082031 -5.710938 21.78125 -2.441406 15.628906 -2.441406 Z M 15.628906 -2.441406 "/></g></g></g><g fill="#3071cd" fill-opacity="1"><g transform="translate(57.743744, 290.258539)"><g><path d="M 15.628906 0.734375 C 24.285156 0.734375 30.171875 -3.796875 30.171875 -10.421875 C 30.171875 -17.015625 24.285156 -21.605469 15.628906 -21.605469 C 7.003906 -21.605469 1.117188 -17.015625 1.117188 -10.421875 C 1.117188 -3.796875 7.003906 0.734375 15.628906 0.734375 Z M 15.628906 -2.441406 C 9.476562 -2.441406 5.210938 -5.710938 5.210938 -10.421875 C 5.210938 -15.128906 9.476562 -18.398438 15.628906 -18.398438 C 21.78125 -18.398438 26.082031 -15.128906 26.082031 -10.421875 C 26.082031 -5.710938 21.78125 -2.441406 15.628906 -2.441406 Z M 15.628906 -2.441406 "/></g></g></g><g fill="#3071cd" fill-opacity="1"><g transform="translate(89.021653, 290.258539)"><g><path d="M 1.472656 0 L 5.5625 0 L 5.5625 -7.066406 L 9.15625 -9.773438 L 18.691406 0 L 23.929688 0 L 12.070312 -12.070312 L 23.695312 -20.871094 L 18.132812 -20.871094 L 5.59375 -11.363281 L 5.5625 -11.363281 L 5.5625 -20.871094 L 1.472656 -20.871094 Z M 1.472656 0 "/></g></g></g><g fill="#3071cd" fill-opacity="1"><g transform="translate(112.943516, 290.258539)"><g><path d="M 1.472656 0 L 5.535156 0 L 5.535156 -20.871094 L 1.472656 -20.871094 Z M 1.472656 0 "/></g></g></g><g fill="#3071cd" fill-opacity="1"><g transform="translate(119.946466, 290.258539)"><g><path d="M 1.472656 0 L 5.417969 0 L 5.417969 -16.894531 L 5.445312 -16.894531 L 20.398438 0 L 25.519531 0 L 25.519531 -20.871094 L 21.546875 -20.871094 L 21.546875 -4.003906 L 21.519531 -4.003906 L 6.59375 -20.871094 L 1.472656 -20.871094 Z M 1.472656 0 "/></g></g></g><g fill="#3071cd" fill-opacity="1"><g transform="translate(146.928451, 290.258539)"><g><path d="M 14.953125 0.675781 C 19.957031 0.675781 24.078125 -1.234375 26.199219 -4.269531 L 26.226562 -4.269531 L 26.523438 0 L 29.820312 0 L 29.820312 -11.65625 L 10.746094 -11.65625 L 10.746094 -9.035156 L 25.875 -9.035156 C 25.785156 -5.238281 21.429688 -2.355469 15.925781 -2.355469 C 9.683594 -2.355469 5.210938 -5.679688 5.210938 -10.363281 C 5.210938 -15.101562 9.332031 -18.425781 15.128906 -18.398438 C 18.898438 -18.398438 22.429688 -16.71875 23.253906 -14.335938 L 27.050781 -15.1875 C 25.960938 -18.925781 20.871094 -21.519531 15.128906 -21.519531 C 6.917969 -21.519531 1.117188 -16.867188 1.117188 -10.273438 C 1.117188 -3.886719 6.859375 0.675781 14.953125 0.675781 Z M 14.953125 0.675781 "/></g></g></g><g fill="#3071cd" fill-opacity="1"><g transform="translate(177.764998, 290.258539)"><g/></g></g><g fill="#3071cd" fill-opacity="1"><g transform="translate(186.268595, 290.258539)"><g><path d="M 15.511719 0.675781 C 22.28125 0.675781 27.492188 -2.441406 28.90625 -7.359375 L 25.109375 -8.242188 C 24.050781 -4.738281 20.371094 -2.503906 15.570312 -2.503906 C 9.242188 -2.503906 5.210938 -5.59375 5.210938 -10.421875 C 5.210938 -15.246094 8.890625 -18.339844 14.660156 -18.339844 C 18.839844 -18.339844 22.105469 -16.367188 23.105469 -13.246094 L 26.816406 -14.335938 C 25.285156 -18.722656 20.515625 -21.519531 14.570312 -21.519531 C 6.328125 -21.519531 1.117188 -17.191406 1.117188 -10.421875 C 1.117188 -3.589844 6.710938 0.675781 15.511719 0.675781 Z M 15.511719 0.675781 "/></g></g></g><g fill="#3071cd" fill-opacity="1"><g transform="translate(215.957605, 290.258539)"><g><path d="M 0.117188 0 L 4.386719 0 L 6.769531 -4.5625 L 19.839844 -4.5625 L 22.222656 0 L 26.523438 0 L 15.75 -20.871094 L 10.980469 -20.871094 Z M 7.976562 -7.417969 L 13.304688 -17.898438 L 13.363281 -17.898438 L 18.664062 -7.417969 Z M 7.976562 -7.417969 "/></g></g></g><g fill="#3071cd" fill-opacity="1"><g transform="translate(242.586494, 290.258539)"><g><path d="M 23.285156 0.589844 C 24.902344 0.589844 26.402344 -0.207031 27.289062 -1.296875 L 26.050781 -3.238281 C 25.609375 -2.5625 24.960938 -2.089844 24.3125 -2.089844 C 23.519531 -2.089844 23.105469 -2.648438 22.753906 -3.355469 L 21.28125 -6.328125 C 20.78125 -7.449219 20.105469 -8.300781 19.105469 -8.832031 L 19.105469 -8.859375 C 22.929688 -9.273438 25.285156 -11.507812 25.285156 -14.628906 C 25.285156 -18.484375 22.253906 -20.871094 17.367188 -20.871094 L 1.472656 -20.871094 L 1.472656 0 L 5.5625 0 L 5.5625 -8.09375 L 14.070312 -8.09375 C 15.542969 -8.09375 16.777344 -7.183594 17.484375 -5.710938 L 19.074219 -2.324219 C 19.871094 -0.765625 21.078125 0.589844 23.285156 0.589844 Z M 5.5625 -10.921875 L 5.5625 -17.957031 L 16.511719 -17.957031 C 19.367188 -17.957031 21.195312 -16.574219 21.195312 -14.394531 C 21.195312 -12.304688 19.367188 -10.921875 16.511719 -10.921875 Z M 5.5625 -10.921875 "/></g></g></g><g fill="#3071cd" fill-opacity="1"><g transform="translate(269.862714, 290.258539)"><g><path d="M 1.472656 0 L 22.519531 0 L 22.519531 -2.972656 L 5.445312 -2.972656 L 5.445312 -9.359375 L 21.046875 -9.359375 L 21.046875 -12.097656 L 5.445312 -12.097656 L 5.445312 -17.867188 L 22.222656 -17.867188 L 22.222656 -20.871094 L 1.472656 -20.871094 Z M 1.472656 0 "/></g></g></g><g fill="#3071cd" fill-opacity="1"><g transform="translate(292.960713, 290.258539)"><g/></g></g><g fill="#3071cd" fill-opacity="1"><g transform="translate(301.46431, 290.258539)"><g><path d="M 1.472656 0 L 5.5625 0 L 5.5625 -9.359375 L 21.136719 -9.359375 L 21.136719 0 L 25.199219 0 L 25.199219 -20.871094 L 21.136719 -20.871094 L 21.136719 -12.453125 L 5.5625 -12.453125 L 5.5625 -20.871094 L 1.472656 -20.871094 Z M 1.472656 0 "/></g></g></g><g fill="#3071cd" fill-opacity="1"><g transform="translate(328.122606, 290.258539)"><g><path d="M 0.941406 0 L 22.046875 0 L 22.046875 -2.972656 L 5.121094 -2.972656 C 5.121094 -5.886719 6.503906 -7.210938 10.507812 -8.007812 L 14.453125 -8.773438 C 19.339844 -9.65625 21.3125 -11.363281 21.3125 -14.746094 C 21.3125 -18.957031 17.75 -21.519531 12.480469 -21.519531 C 8.210938 -21.519531 3.972656 -19.691406 1.648438 -16.808594 L 3.5625 -14.246094 C 5.5625 -16.75 8.917969 -18.398438 12.039062 -18.398438 C 15.1875 -18.398438 17.277344 -16.925781 17.277344 -14.804688 C 17.277344 -12.980469 16.132812 -12.070312 13.1875 -11.507812 L 9.390625 -10.804688 C 3.238281 -9.625 0.972656 -7.386719 0.941406 -2.265625 Z M 0.941406 0 "/></g></g></g><g fill="#3071cd" fill-opacity="1"><g transform="translate(351.073481, 290.258539)"><g><path d="M 9.539062 0 L 13.628906 0 L 13.628906 -17.660156 L 22.988281 -17.660156 L 22.988281 -20.871094 L 0.175781 -20.871094 L 0.175781 -17.660156 L 9.539062 -17.660156 Z M 9.539062 0 "/></g></g></g><g fill="#2cb2cd" fill-opacity="1"><g transform="translate(118.433774, 320.875448)"><g><path d="M 11.996094 -11.957031 L 7.394531 -1.535156 L 2.808594 -11.957031 L 1.453125 -11.957031 L 1.453125 0 L 2.730469 0 L 2.730469 -9.445312 L 6.855469 0 L 7.910156 0 L 12.078125 -9.40625 L 12.078125 0 L 13.332031 0 L 13.332031 -11.957031 Z M 11.996094 -11.957031 "/></g></g></g><g fill="#2cb2cd" fill-opacity="1"><g transform="translate(133.216309, 320.875448)"><g><path d="M 8.089844 -10.722656 L 8.089844 -11.957031 L 1.554688 -11.957031 L 1.554688 0 L 8.089844 0 L 8.089844 -1.234375 L 2.828125 -1.234375 L 2.828125 -5.359375 L 7.414062 -5.359375 L 7.414062 -6.597656 L 2.828125 -6.597656 L 2.828125 -10.722656 Z M 8.089844 -10.722656 "/></g></g></g><g fill="#2cb2cd" fill-opacity="1"><g transform="translate(142.500217, 320.875448)"><g><path d="M 1.453125 0 L 4.722656 0 C 8.011719 0 10.703125 -2.671875 10.703125 -5.976562 C 10.703125 -9.285156 8.011719 -11.957031 4.722656 -11.957031 L 1.453125 -11.957031 Z M 2.710938 -1.277344 L 2.710938 -10.679688 L 4.703125 -10.679688 C 7.351562 -10.679688 9.425781 -8.667969 9.425781 -5.976562 C 9.425781 -3.289062 7.351562 -1.277344 4.703125 -1.277344 Z M 2.710938 -1.277344 "/></g></g></g><g fill="#2cb2cd" fill-opacity="1"><g transform="translate(154.174837, 320.875448)"><g><path d="M 1.554688 0 L 2.828125 0 L 2.828125 -11.957031 L 1.554688 -11.957031 Z M 1.554688 0 "/></g></g></g><g fill="#2cb2cd" fill-opacity="1"><g transform="translate(158.537883, 320.875448)"><g><path d="M 7.113281 0.160156 C 9.40625 0.160156 11.398438 -1.097656 12.453125 -2.949219 L 11.359375 -3.566406 C 10.542969 -2.09375 8.949219 -1.117188 7.113281 -1.117188 C 4.425781 -1.117188 2.25 -3.269531 2.25 -5.976562 C 2.25 -8.6875 4.425781 -10.839844 7.113281 -10.839844 C 8.949219 -10.839844 10.542969 -9.863281 11.359375 -8.390625 L 12.453125 -9.007812 C 11.398438 -10.859375 9.40625 -12.117188 7.113281 -12.117188 C 3.726562 -12.117188 0.976562 -9.367188 0.976562 -5.976562 C 0.976562 -2.589844 3.726562 0.160156 7.113281 0.160156 Z M 7.113281 0.160156 "/></g></g></g><g fill="#2cb2cd" fill-opacity="1"><g transform="translate(171.646923, 320.875448)"><g><path d="M 8.667969 0 L 10.0625 0 L 5.738281 -11.957031 L 4.324219 -11.957031 L 0 0 L 1.394531 0 L 2.371094 -2.789062 L 7.691406 -2.789062 Z M 2.789062 -4.003906 L 5.042969 -10.441406 L 7.273438 -4.003906 Z M 2.789062 -4.003906 "/></g></g></g><g fill="#2cb2cd" fill-opacity="1"><g transform="translate(181.707809, 320.875448)"><g><path d="M 2.730469 -1.277344 L 2.730469 -11.957031 L 1.453125 -11.957031 L 1.453125 0 L 7.175781 0 L 7.175781 -1.277344 Z M 2.730469 -1.277344 "/></g></g></g><g fill="#2cb2cd" fill-opacity="1"><g transform="translate(189.059233, 320.875448)"><g/></g></g><g fill="#2cb2cd" fill-opacity="1"><g transform="translate(193.860569, 320.875448)"><g><path d="M 7.113281 0.160156 C 9.40625 0.160156 11.398438 -1.097656 12.453125 -2.949219 L 11.359375 -3.566406 C 10.542969 -2.09375 8.949219 -1.117188 7.113281 -1.117188 C 4.425781 -1.117188 2.25 -3.269531 2.25 -5.976562 C 2.25 -8.6875 4.425781 -10.839844 7.113281 -10.839844 C 8.949219 -10.839844 10.542969 -9.863281 11.359375 -8.390625 L 12.453125 -9.007812 C 11.398438 -10.859375 9.40625 -12.117188 7.113281 -12.117188 C 3.726562 -12.117188 0.976562 -9.367188 0.976562 -5.976562 C 0.976562 -2.589844 3.726562 0.160156 7.113281 0.160156 Z M 7.113281 0.160156 "/></g></g></g><g fill="#2cb2cd" fill-opacity="1"><g transform="translate(206.969608, 320.875448)"><g><path d="M 8.089844 -10.722656 L 8.089844 -11.957031 L 1.554688 -11.957031 L 1.554688 0 L 8.089844 0 L 8.089844 -1.234375 L 2.828125 -1.234375 L 2.828125 -5.359375 L 7.414062 -5.359375 L 7.414062 -6.597656 L 2.828125 -6.597656 L 2.828125 -10.722656 Z M 8.089844 -10.722656 "/></g></g></g><g fill="#2cb2cd" fill-opacity="1"><g transform="translate(216.253515, 320.875448)"><g><path d="M 10.042969 -11.957031 L 10.042969 -2.132812 L 2.652344 -11.957031 L 1.453125 -11.957031 L 1.453125 0 L 2.730469 0 L 2.730469 -9.824219 L 10.105469 0 L 11.300781 0 L 11.300781 -11.957031 Z M 10.042969 -11.957031 "/></g></g></g><g fill="#2cb2cd" fill-opacity="1"><g transform="translate(229.003953, 320.875448)"><g><path d="M 8.070312 -11.957031 L 0.179688 -11.957031 L 0.179688 -10.679688 L 3.488281 -10.679688 L 3.488281 0 L 4.761719 0 L 4.761719 -10.679688 L 8.070312 -10.679688 Z M 8.070312 -11.957031 "/></g></g></g><g fill="#2cb2cd" fill-opacity="1"><g transform="translate(237.251893, 320.875448)"><g><path d="M 8.089844 -10.722656 L 8.089844 -11.957031 L 1.554688 -11.957031 L 1.554688 0 L 8.089844 0 L 8.089844 -1.234375 L 2.828125 -1.234375 L 2.828125 -5.359375 L 7.414062 -5.359375 L 7.414062 -6.597656 L 2.828125 -6.597656 L 2.828125 -10.722656 Z M 8.089844 -10.722656 "/></g></g></g><g fill="#2cb2cd" fill-opacity="1"><g transform="translate(246.535801, 320.875448)"><g><path d="M 6.296875 -5.460938 C 7.871094 -5.679688 9.066406 -6.996094 9.066406 -8.609375 C 9.066406 -10.480469 7.574219 -11.957031 5.738281 -11.957031 L 1.453125 -11.957031 L 1.453125 0 L 2.730469 0 L 2.730469 -5.402344 L 4.980469 -5.402344 L 8.371094 0 L 9.824219 0 Z M 2.730469 -6.617188 L 2.730469 -10.679688 L 5.660156 -10.679688 C 6.855469 -10.679688 7.792969 -9.84375 7.792969 -8.648438 C 7.792969 -7.433594 6.875 -6.617188 5.660156 -6.617188 Z M 2.730469 -6.617188 "/></g></g></g></svg>