<svg xmlns="http://www.w3.org/2000/svg" xmlns:xlink="http://www.w3.org/1999/xlink" width="500" zoomAndPan="magnify" viewBox="0 0 375 374.999991" height="500" preserveAspectRatio="xMidYMid meet" version="1.0"><defs><clipPath id="48b3d2a644"><path d="M 187.5 0 C 83.945312 0 0 83.945312 0 187.5 C 0 291.054688 83.945312 375 187.5 375 C 291.054688 375 375 291.054688 375 187.5 C 375 83.945312 291.054688 0 187.5 0 Z M 187.5 0 " clip-rule="nonzero"/></clipPath><clipPath id="087610b858"><path d="M 8.765625 8.765625 L 366.234375 8.765625 L 366.234375 366.234375 L 8.765625 366.234375 Z M 8.765625 8.765625 " clip-rule="nonzero"/></clipPath><clipPath id="7b112a3f6e"><path d="M 187.5 8.765625 C 88.785156 8.765625 8.765625 88.785156 8.765625 187.5 C 8.765625 286.210938 88.785156 366.234375 187.5 366.234375 C 286.210938 366.234375 366.234375 286.210938 366.234375 187.5 C 366.234375 88.785156 286.210938 8.765625 187.5 8.765625 Z M 187.5 8.765625 " clip-rule="nonzero"/></clipPath><clipPath id="539c25c6d0"><path d="M 93 37.9375 L 277 37.9375 L 277 287 L 93 287 Z M 93 37.9375 " clip-rule="nonzero"/></clipPath></defs><g clip-path="url(#48b3d2a644)"><path stroke-linecap="butt" transform="matrix(0.75, 0, 0, 0.75, 0.0000045, 0)" fill="none" stroke-linejoin="miter" d="M 249.999994 0 C 111.927078 0 -0.000006 111.927084 -0.000006 250 C -0.000006 388.072917 111.927078 500.000001 249.999994 500.000001 C 388.072911 500.000001 499.999995 388.072917 499.999995 250 C 499.999995 111.927084 388.072911 0 249.999994 0 Z M 249.999994 0 " stroke="#3071cd" stroke-width="2" stroke-opacity="1" stroke-miterlimit="4"/></g><g clip-path="url(#087610b858)"><g clip-path="url(#7b112a3f6e)"><path stroke-linecap="butt" transform="matrix(0.75, 0, 0, 0.75, 8.764612, 8.764628)" fill="none" stroke-linejoin="miter" d="M 238.313851 0.00132893 C 106.69406 0.00132893 0.00135109 106.694037 0.00135109 238.313829 C 0.00135109 369.928413 106.69406 476.62633 238.313851 476.62633 C 369.928435 476.62633 476.626352 369.928413 476.626352 238.313829 C 476.626352 106.694037 369.928435 0.00132893 238.313851 0.00132893 Z M 238.313851 0.00132893 " stroke="#3071cd" stroke-width="8" stroke-opacity="1" stroke-miterlimit="4"/></g></g><g clip-path="url(#539c25c6d0)"><path fill="#2cb2cd" d="M 120.140625 260.046875 C 124.894531 261.125 129.710938 261.683594 134.585938 261.726562 C 136.769531 261.726562 138.949219 261.617188 141.105469 261.445312 C 133.65625 256.417969 127.269531 250.28125 121.945312 243.042969 L 120.382812 225.464844 L 118.335938 225.464844 C 117.949219 225.464844 117.566406 225.429688 117.191406 225.351562 C 116.8125 225.277344 116.445312 225.167969 116.089844 225.019531 C 115.734375 224.871094 115.394531 224.691406 115.074219 224.476562 C 114.753906 224.261719 114.457031 224.019531 114.183594 223.746094 C 113.914062 223.472656 113.667969 223.175781 113.457031 222.855469 C 113.242188 222.535156 113.058594 222.199219 112.914062 221.84375 C 112.765625 221.488281 112.652344 221.121094 112.578125 220.742188 C 112.503906 220.363281 112.464844 219.980469 112.464844 219.597656 L 112.464844 189.359375 C 112.464844 188.613281 112.539062 187.871094 112.683594 187.136719 C 112.828125 186.40625 113.042969 185.691406 113.332031 185 C 113.617188 184.308594 113.96875 183.652344 114.382812 183.03125 C 114.796875 182.410156 115.269531 181.835938 115.796875 181.304688 C 116.328125 180.777344 116.902344 180.304688 117.523438 179.890625 C 118.144531 179.476562 118.800781 179.125 119.492188 178.839844 C 120.183594 178.550781 120.894531 178.335938 121.628906 178.191406 C 122.363281 178.046875 123.105469 177.972656 123.851562 177.972656 L 129.0625 177.972656 C 129.554688 177.976562 130.003906 177.835938 130.402344 177.542969 C 130.800781 177.25 131.074219 176.867188 131.21875 176.394531 C 131.363281 175.921875 131.355469 175.453125 131.1875 174.988281 C 131.023438 174.519531 130.734375 174.152344 130.324219 173.875 C 129.328125 173.242188 128.429688 172.496094 127.621094 171.636719 C 126.816406 170.773438 126.128906 169.828125 125.5625 168.792969 C 124.996094 167.761719 124.5625 166.671875 124.273438 165.53125 C 123.980469 164.386719 123.832031 163.226562 123.832031 162.046875 L 123.832031 159.671875 C 123.832031 159.183594 123.859375 158.699219 123.910156 158.210938 C 123.960938 157.726562 124.035156 157.246094 124.136719 156.765625 C 124.238281 156.289062 124.363281 155.816406 124.511719 155.351562 C 124.664062 154.890625 124.835938 154.433594 125.035156 153.988281 C 125.234375 153.539062 125.453125 153.105469 125.695312 152.683594 C 125.941406 152.257812 126.203125 151.847656 126.492188 151.453125 C 126.777344 151.058594 127.082031 150.675781 127.40625 150.3125 C 127.734375 149.949219 128.078125 149.601562 128.4375 149.277344 C 128.800781 148.949219 129.179688 148.640625 129.574219 148.351562 C 129.964844 148.0625 130.375 147.792969 130.796875 147.546875 C 131.21875 147.300781 131.652344 147.078125 132.097656 146.878906 C 132.542969 146.679688 132.996094 146.5 133.460938 146.347656 C 133.921875 146.195312 134.394531 146.066406 134.871094 145.960938 C 135.347656 145.855469 135.828125 145.777344 136.3125 145.722656 C 136.800781 145.671875 137.285156 145.640625 137.773438 145.640625 C 138.261719 145.636719 138.75 145.65625 139.234375 145.707031 C 146.53125 146.402344 151.875 152.929688 151.875 160.269531 L 151.875 162.074219 C 151.875 163.253906 151.730469 164.414062 151.4375 165.558594 C 151.144531 166.699219 150.714844 167.789062 150.148438 168.820312 C 149.582031 169.855469 148.894531 170.800781 148.085938 171.664062 C 147.28125 172.523438 146.378906 173.269531 145.386719 173.902344 C 144.980469 174.179688 144.695312 174.554688 144.535156 175.019531 C 144.375 175.484375 144.367188 175.949219 144.515625 176.421875 C 144.660156 176.890625 144.929688 177.269531 145.328125 177.5625 C 145.722656 177.855469 146.167969 178 146.65625 178 L 151.867188 178 C 152.765625 178.003906 153.652344 178.109375 154.527344 178.320312 C 155.402344 178.535156 156.238281 178.847656 157.039062 179.257812 C 157.835938 179.667969 158.578125 180.167969 159.257812 180.753906 C 159.941406 181.34375 160.542969 182 161.066406 182.734375 C 160.050781 183.046875 159.066406 183.441406 158.113281 183.914062 C 157.160156 184.386719 156.246094 184.933594 155.378906 185.550781 C 154.511719 186.164062 153.699219 186.847656 152.941406 187.59375 C 152.183594 188.339844 151.488281 189.140625 150.855469 189.996094 C 150.222656 190.855469 149.664062 191.753906 149.171875 192.699219 C 148.683594 193.644531 148.273438 194.625 147.941406 195.636719 C 147.605469 196.644531 147.355469 197.675781 147.1875 198.726562 C 147.015625 199.777344 146.929688 200.835938 146.929688 201.902344 L 146.929688 243.523438 C 146.929688 244.480469 147.070312 245.414062 147.347656 246.328125 C 147.625 247.242188 148.03125 248.097656 148.558594 248.894531 C 149.089844 249.691406 149.722656 250.394531 150.460938 251 C 151.195312 251.609375 152.007812 252.101562 152.886719 252.46875 L 152.21875 259.875 C 156.363281 258.988281 160.414062 257.785156 164.371094 256.261719 L 162.648438 247.511719 L 156.632812 247.511719 C 156.371094 247.515625 156.113281 247.488281 155.855469 247.4375 C 155.597656 247.386719 155.347656 247.3125 155.105469 247.210938 C 154.863281 247.113281 154.632812 246.988281 154.414062 246.84375 C 154.195312 246.699219 153.996094 246.53125 153.808594 246.347656 C 153.625 246.160156 153.460938 245.960938 153.3125 245.742188 C 153.167969 245.523438 153.046875 245.292969 152.945312 245.050781 C 152.84375 244.808594 152.769531 244.558594 152.71875 244.300781 C 152.667969 244.042969 152.644531 243.785156 152.644531 243.523438 L 152.644531 201.875 C 152.644531 200.929688 152.738281 199.996094 152.921875 199.070312 C 153.105469 198.144531 153.378906 197.242188 153.742188 196.371094 C 154.101562 195.5 154.546875 194.671875 155.070312 193.886719 C 155.597656 193.101562 156.191406 192.375 156.859375 191.710938 C 157.527344 191.042969 158.253906 190.445312 159.039062 189.921875 C 159.824219 189.398438 160.652344 188.953125 161.523438 188.59375 C 162.398438 188.234375 163.296875 187.960938 164.222656 187.777344 C 165.148438 187.589844 166.082031 187.5 167.027344 187.5 L 173.609375 187.5 C 173.914062 187.5 174.210938 187.457031 174.5 187.363281 C 174.789062 187.269531 175.054688 187.132812 175.300781 186.953125 C 175.546875 186.773438 175.757812 186.558594 175.933594 186.3125 C 176.109375 186.0625 176.242188 185.792969 176.332031 185.503906 C 176.425781 185.214844 176.464844 184.917969 176.460938 184.613281 C 176.457031 184.308594 176.402344 184.011719 176.300781 183.726562 C 176.199219 183.4375 176.058594 183.175781 175.871094 182.933594 C 175.6875 182.695312 175.46875 182.488281 175.214844 182.316406 C 173.957031 181.519531 172.820312 180.574219 171.800781 179.488281 C 170.78125 178.402344 169.910156 177.207031 169.195312 175.898438 C 168.476562 174.59375 167.933594 173.21875 167.5625 171.773438 C 167.191406 170.332031 167.007812 168.863281 167.007812 167.375 L 167.007812 164.339844 C 167.007812 163.761719 167.035156 163.183594 167.09375 162.605469 C 167.152344 162.027344 167.234375 161.453125 167.347656 160.882812 C 167.460938 160.316406 167.601562 159.753906 167.773438 159.199219 C 167.941406 158.644531 168.136719 158.097656 168.359375 157.5625 C 168.582031 157.023438 168.828125 156.5 169.101562 155.988281 C 169.375 155.476562 169.671875 154.980469 169.996094 154.5 C 170.320312 154.015625 170.664062 153.550781 171.03125 153.101562 C 171.402344 152.65625 171.789062 152.226562 172.199219 151.816406 C 172.609375 151.40625 173.039062 151.015625 173.488281 150.648438 C 173.9375 150.28125 174.402344 149.933594 174.886719 149.613281 C 175.371094 149.292969 175.867188 148.992188 176.378906 148.71875 C 176.890625 148.449219 177.414062 148.199219 177.949219 147.976562 C 178.488281 147.757812 179.03125 147.5625 179.589844 147.394531 C 180.144531 147.226562 180.707031 147.085938 181.273438 146.972656 C 181.84375 146.859375 182.417969 146.777344 182.996094 146.71875 C 183.574219 146.664062 184.152344 146.636719 184.730469 146.636719 C 184.820312 146.636719 184.914062 146.636719 185.003906 146.636719 C 185.09375 146.636719 185.183594 146.636719 185.273438 146.636719 C 185.855469 146.636719 186.433594 146.664062 187.011719 146.71875 C 187.589844 146.773438 188.164062 146.859375 188.730469 146.972656 C 189.300781 147.082031 189.863281 147.222656 190.417969 147.390625 C 190.976562 147.558594 191.519531 147.753906 192.058594 147.976562 C 192.59375 148.195312 193.117188 148.445312 193.628906 148.71875 C 194.144531 148.992188 194.640625 149.289062 195.125 149.609375 C 195.605469 149.933594 196.070312 150.277344 196.519531 150.644531 C 196.96875 151.011719 197.398438 151.402344 197.8125 151.8125 C 198.222656 152.222656 198.609375 152.652344 198.980469 153.101562 C 199.347656 153.546875 199.695312 154.011719 200.015625 154.496094 C 200.339844 154.976562 200.636719 155.476562 200.910156 155.988281 C 201.183594 156.5 201.433594 157.023438 201.65625 157.558594 C 201.878906 158.09375 202.074219 158.640625 202.242188 159.195312 C 202.410156 159.75 202.550781 160.3125 202.664062 160.882812 C 202.777344 161.453125 202.863281 162.027344 202.921875 162.605469 C 202.976562 163.179688 203.007812 163.761719 203.007812 164.339844 L 203.007812 167.347656 C 203.007812 168.835938 202.824219 170.304688 202.453125 171.746094 C 202.085938 173.191406 201.542969 174.566406 200.824219 175.871094 C 200.109375 177.175781 199.242188 178.375 198.222656 179.460938 C 197.203125 180.546875 196.066406 181.492188 194.808594 182.289062 C 194.554688 182.460938 194.339844 182.664062 194.152344 182.90625 C 193.96875 183.148438 193.824219 183.410156 193.722656 183.695312 C 193.621094 183.984375 193.570312 184.277344 193.5625 184.582031 C 193.558594 184.886719 193.597656 185.183594 193.6875 185.472656 C 193.777344 185.761719 193.910156 186.03125 194.085938 186.28125 C 194.261719 186.527344 194.472656 186.742188 194.71875 186.921875 C 194.960938 187.101562 195.230469 187.238281 195.515625 187.332031 C 195.804688 187.425781 196.101562 187.472656 196.40625 187.472656 L 202.996094 187.472656 C 203.941406 187.472656 204.875 187.566406 205.800781 187.75 C 206.726562 187.933594 207.625 188.207031 208.5 188.566406 C 209.371094 188.925781 210.199219 189.371094 210.984375 189.894531 C 211.769531 190.417969 212.496094 191.015625 213.164062 191.683594 C 213.832031 192.347656 214.429688 193.074219 214.953125 193.859375 C 215.476562 194.644531 215.921875 195.472656 216.28125 196.34375 C 216.644531 197.21875 216.917969 198.117188 217.101562 199.042969 C 217.285156 199.96875 217.378906 200.902344 217.378906 201.847656 L 217.378906 243.523438 C 217.378906 243.785156 217.355469 244.042969 217.304688 244.300781 C 217.25 244.558594 217.175781 244.808594 217.074219 245.046875 C 216.976562 245.289062 216.851562 245.519531 216.707031 245.738281 C 216.5625 245.957031 216.394531 246.15625 216.210938 246.339844 C 216.023438 246.527344 215.824219 246.691406 215.605469 246.835938 C 215.386719 246.980469 215.15625 247.105469 214.914062 247.203125 C 214.671875 247.304688 214.425781 247.378906 214.167969 247.429688 C 213.910156 247.480469 213.652344 247.503906 213.390625 247.503906 L 207.375 247.503906 L 204.605469 261.472656 C 205.589844 267.050781 203.269531 273.371094 198.464844 277.597656 C 194.398438 281.222656 189.957031 284.3125 185.148438 286.871094 C 193.859375 286.851562 202.390625 285.605469 210.742188 283.140625 C 214.4375 280.859375 217.871094 278.234375 221.046875 275.269531 C 223.929688 272.453125 227.140625 270.085938 230.6875 268.171875 C 233.226562 266.808594 235.933594 266.105469 238.8125 266.058594 C 239.984375 266.0625 241.136719 266.207031 242.273438 266.5 C 243.398438 265.59375 244.503906 264.660156 245.585938 263.699219 C 246.667969 262.742188 247.726562 261.757812 248.761719 260.746094 C 249.796875 259.738281 250.804688 258.703125 251.792969 257.644531 C 252.777344 256.589844 253.738281 255.507812 254.675781 254.40625 C 255.609375 253.300781 256.519531 252.175781 257.398438 251.03125 C 258.28125 249.882812 259.136719 248.71875 259.960938 247.53125 C 260.789062 246.34375 261.585938 245.136719 262.355469 243.914062 C 263.125 242.6875 263.863281 241.445312 264.574219 240.1875 C 265.285156 238.925781 265.964844 237.652344 266.613281 236.359375 C 267.261719 235.066406 267.882812 233.761719 268.46875 232.4375 C 269.058594 231.117188 269.613281 229.785156 270.136719 228.433594 C 270.660156 227.085938 271.152344 225.726562 271.613281 224.355469 C 272.074219 222.984375 272.5 221.605469 272.894531 220.214844 C 273.289062 218.820312 273.648438 217.421875 273.976562 216.015625 C 274.304688 214.605469 274.601562 213.191406 274.859375 211.765625 C 275.121094 210.34375 275.347656 208.917969 275.539062 207.484375 C 275.734375 206.050781 275.894531 204.613281 276.019531 203.171875 C 276.140625 201.730469 276.234375 200.289062 276.289062 198.84375 C 276.34375 197.398438 276.367188 195.953125 276.355469 194.507812 C 276.34375 193.0625 276.296875 191.617188 276.214844 190.171875 C 276.136719 188.726562 276.019531 187.289062 275.871094 185.847656 C 275.722656 184.410156 275.539062 182.976562 275.320312 181.546875 C 275.105469 180.117188 274.851562 178.691406 274.566406 177.273438 C 274.285156 175.855469 273.964844 174.445312 273.613281 173.042969 C 273.261719 171.640625 272.878906 170.25 272.460938 168.863281 C 272.042969 167.480469 271.589844 166.105469 271.109375 164.742188 C 270.625 163.378906 270.109375 162.027344 269.5625 160.691406 C 269.015625 159.351562 268.4375 158.027344 267.828125 156.714844 C 267.21875 155.402344 266.578125 154.105469 265.90625 152.828125 C 265.234375 151.546875 264.53125 150.28125 263.800781 149.035156 C 263.070312 147.785156 262.308594 146.558594 261.519531 145.34375 C 260.730469 144.132812 259.910156 142.941406 259.066406 141.769531 L 189.4375 40.394531 C 189.175781 40.015625 188.875 39.671875 188.53125 39.367188 C 188.1875 39.0625 187.8125 38.804688 187.40625 38.589844 C 187 38.375 186.574219 38.210938 186.125 38.101562 C 185.679688 37.992188 185.226562 37.9375 184.769531 37.9375 C 184.308594 37.9375 183.855469 37.992188 183.410156 38.101562 C 182.964844 38.210938 182.535156 38.375 182.128906 38.589844 C 181.722656 38.804688 181.347656 39.0625 181.003906 39.367188 C 180.660156 39.671875 180.359375 40.015625 180.101562 40.394531 L 110.472656 141.769531 C 108.894531 143.953125 107.414062 146.199219 106.035156 148.511719 C 104.65625 150.828125 103.382812 153.195312 102.214844 155.621094 C 101.046875 158.046875 99.984375 160.519531 99.035156 163.039062 C 98.085938 165.5625 97.25 168.117188 96.523438 170.710938 C 95.800781 173.304688 95.191406 175.925781 94.703125 178.574219 C 94.210938 181.222656 93.835938 183.886719 93.578125 186.566406 C 93.324219 189.246094 93.183594 191.933594 93.167969 194.628906 C 93.148438 197.320312 93.25 200.007812 93.46875 202.691406 C 93.6875 205.375 94.023438 208.046875 94.480469 210.699219 C 94.9375 213.355469 95.507812 215.984375 96.195312 218.585938 C 96.886719 221.191406 97.6875 223.757812 98.601562 226.289062 C 99.519531 228.824219 100.542969 231.3125 101.679688 233.753906 C 102.816406 236.195312 104.054688 238.582031 105.402344 240.914062 C 106.75 243.246094 108.195312 245.511719 109.746094 247.71875 C 111.292969 249.921875 112.933594 252.050781 114.667969 254.113281 C 116.40625 256.171875 118.230469 258.148438 120.140625 260.046875 Z M 218.136719 159.671875 C 218.136719 159.183594 218.164062 158.699219 218.214844 158.210938 C 218.265625 157.726562 218.339844 157.246094 218.441406 156.765625 C 218.542969 156.289062 218.667969 155.816406 218.816406 155.351562 C 218.96875 154.890625 219.140625 154.433594 219.339844 153.988281 C 219.539062 153.539062 219.757812 153.105469 220 152.683594 C 220.246094 152.257812 220.507812 151.847656 220.796875 151.453125 C 221.082031 151.058594 221.386719 150.675781 221.710938 150.3125 C 222.039062 149.949219 222.382812 149.601562 222.742188 149.277344 C 223.105469 148.949219 223.484375 148.640625 223.878906 148.351562 C 224.269531 148.0625 224.679688 147.792969 225.101562 147.546875 C 225.523438 147.300781 225.957031 147.078125 226.402344 146.878906 C 226.847656 146.679688 227.300781 146.5 227.765625 146.347656 C 228.226562 146.195312 228.699219 146.066406 229.175781 145.960938 C 229.652344 145.855469 230.132812 145.777344 230.621094 145.722656 C 231.105469 145.671875 231.589844 145.640625 232.078125 145.640625 C 232.566406 145.636719 233.054688 145.65625 233.542969 145.707031 C 240.835938 146.402344 246.179688 152.929688 246.179688 160.269531 L 246.179688 162.074219 C 246.183594 163.253906 246.035156 164.414062 245.742188 165.558594 C 245.449219 166.699219 245.019531 167.789062 244.453125 168.820312 C 243.886719 169.855469 243.199219 170.800781 242.390625 171.664062 C 241.585938 172.523438 240.683594 173.269531 239.691406 173.902344 C 239.277344 174.175781 238.992188 174.546875 238.824219 175.015625 C 238.660156 175.480469 238.652344 175.949219 238.796875 176.421875 C 238.941406 176.894531 239.214844 177.277344 239.613281 177.570312 C 240.011719 177.859375 240.460938 178.003906 240.953125 178 L 246.164062 178 C 246.910156 178 247.652344 178.074219 248.382812 178.21875 C 249.117188 178.367188 249.828125 178.582031 250.519531 178.867188 C 251.210938 179.152344 251.867188 179.503906 252.488281 179.921875 C 253.109375 180.335938 253.683594 180.808594 254.214844 181.335938 C 254.742188 181.863281 255.214844 182.441406 255.628906 183.0625 C 256.046875 183.683594 256.394531 184.339844 256.683594 185.03125 C 256.96875 185.71875 257.183594 186.433594 257.328125 187.164062 C 257.476562 187.898438 257.546875 188.640625 257.546875 189.386719 L 257.546875 219.597656 C 257.546875 219.980469 257.511719 220.363281 257.4375 220.742188 C 257.359375 221.121094 257.25 221.488281 257.101562 221.84375 C 256.953125 222.199219 256.773438 222.535156 256.558594 222.855469 C 256.34375 223.175781 256.101562 223.472656 255.828125 223.746094 C 255.558594 224.019531 255.261719 224.261719 254.941406 224.476562 C 254.621094 224.691406 254.28125 224.871094 253.925781 225.019531 C 253.570312 225.167969 253.203125 225.277344 252.824219 225.351562 C 252.445312 225.429688 252.066406 225.464844 251.679688 225.464844 L 249.628906 225.464844 L 248.121094 242.167969 C 244.316406 247.535156 239.902344 252.339844 234.882812 256.59375 C 229.863281 260.84375 224.390625 264.402344 218.472656 267.269531 L 217.136719 252.488281 C 218.015625 252.117188 218.828125 251.628906 219.5625 251.019531 C 220.300781 250.410156 220.933594 249.707031 221.464844 248.914062 C 221.996094 248.117188 222.398438 247.261719 222.675781 246.347656 C 222.953125 245.433594 223.09375 244.496094 223.09375 243.539062 L 223.09375 201.875 C 223.09375 200.808594 223.007812 199.75 222.835938 198.699219 C 222.667969 197.648438 222.417969 196.617188 222.082031 195.609375 C 221.75 194.597656 221.339844 193.621094 220.851562 192.671875 C 220.359375 191.726562 219.800781 190.828125 219.167969 189.96875 C 218.539062 189.113281 217.839844 188.3125 217.082031 187.566406 C 216.324219 186.820312 215.511719 186.140625 214.644531 185.523438 C 213.777344 184.90625 212.863281 184.359375 211.910156 183.886719 C 210.957031 183.414062 209.972656 183.019531 208.957031 182.707031 C 209.480469 181.976562 210.082031 181.316406 210.765625 180.726562 C 211.445312 180.140625 212.1875 179.640625 212.984375 179.230469 C 213.785156 178.820312 214.621094 178.507812 215.496094 178.296875 C 216.371094 178.082031 217.257812 177.976562 218.15625 177.972656 L 223.367188 177.972656 C 223.859375 177.976562 224.308594 177.835938 224.707031 177.542969 C 225.105469 177.25 225.378906 176.867188 225.523438 176.394531 C 225.667969 175.921875 225.660156 175.453125 225.492188 174.988281 C 225.328125 174.519531 225.039062 174.152344 224.628906 173.875 C 223.636719 173.242188 222.734375 172.496094 221.925781 171.636719 C 221.121094 170.773438 220.433594 169.828125 219.867188 168.792969 C 219.300781 167.761719 218.871094 166.671875 218.578125 165.53125 C 218.285156 164.386719 218.136719 163.226562 218.136719 162.046875 Z M 156.066406 97.375 L 174.070312 97.375 L 174.070312 79.363281 L 195.46875 79.363281 L 195.46875 97.367188 L 213.460938 97.367188 L 213.460938 118.753906 L 195.46875 118.753906 L 195.46875 136.757812 L 174.070312 136.757812 L 174.070312 118.753906 L 156.066406 118.753906 Z M 156.066406 97.375 " fill-opacity="1" fill-rule="nonzero"/></g><path fill="#3071cd" d="M 203.402344 60.746094 L 233.804688 104.984375 C 235.617188 105.980469 237.398438 107.027344 239.152344 108.128906 C 240.902344 109.230469 242.617188 110.382812 244.296875 111.589844 C 245.976562 112.796875 247.621094 114.050781 249.226562 115.355469 C 250.828125 116.664062 252.390625 118.015625 253.914062 119.417969 C 255.4375 120.820312 256.914062 122.265625 258.347656 123.753906 C 259.78125 125.246094 261.167969 126.777344 262.507812 128.355469 C 263.851562 129.929688 265.140625 131.542969 266.382812 133.199219 C 267.625 134.851562 268.816406 136.542969 269.957031 138.265625 C 271.097656 139.992188 272.183594 141.753906 273.214844 143.546875 C 274.25 145.335938 275.226562 147.160156 276.148438 149.011719 C 277.070312 150.863281 277.933594 152.742188 278.742188 154.644531 C 279.550781 156.550781 280.300781 158.476562 280.988281 160.425781 C 281.679688 162.375 282.308594 164.34375 282.882812 166.332031 C 283.453125 168.320312 283.960938 170.324219 284.410156 172.34375 C 284.859375 174.363281 285.246094 176.394531 285.570312 178.4375 C 285.898438 180.480469 286.160156 182.53125 286.359375 184.589844 C 286.5625 186.648438 286.699219 188.710938 286.773438 190.777344 C 286.847656 192.84375 286.859375 194.914062 286.808594 196.980469 C 286.757812 199.046875 286.644531 201.113281 286.46875 203.171875 C 286.292969 205.234375 286.054688 207.289062 285.753906 209.335938 C 285.453125 211.382812 285.089844 213.417969 284.664062 215.441406 C 284.238281 217.464844 283.753906 219.476562 283.207031 221.46875 C 282.660156 223.464844 282.050781 225.441406 281.382812 227.398438 C 280.71875 229.355469 279.992188 231.292969 279.207031 233.207031 C 278.421875 235.121094 277.578125 237.007812 276.679688 238.871094 C 275.777344 240.734375 274.824219 242.566406 273.8125 244.371094 C 272.800781 246.175781 271.734375 247.945312 270.613281 249.6875 C 269.496094 251.425781 268.324219 253.128906 267.101562 254.796875 C 265.878906 256.464844 264.605469 258.09375 263.285156 259.6875 C 261.960938 261.277344 260.59375 262.828125 259.175781 264.335938 C 257.761719 265.84375 256.300781 267.304688 254.792969 268.722656 C 253.289062 270.144531 251.742188 271.515625 250.152344 272.839844 C 250.246094 273 250.351562 273.15625 250.433594 273.328125 C 250.640625 273.785156 250.832031 274.230469 250.992188 274.726562 C 251.910156 274.570312 252.835938 274.488281 253.765625 274.492188 C 254.871094 274.460938 255.964844 274.585938 257.035156 274.859375 C 258.109375 275.136719 259.125 275.550781 260.082031 276.109375 C 261.039062 276.667969 261.902344 277.347656 262.667969 278.144531 C 263.4375 278.945312 264.078125 279.832031 264.601562 280.8125 C 265.070312 281.71875 265.425781 282.667969 265.664062 283.664062 C 266.316406 283.746094 266.953125 283.878906 267.585938 284.0625 C 268.214844 284.246094 268.824219 284.476562 269.417969 284.753906 C 270.007812 285.035156 270.578125 285.359375 271.117188 285.726562 C 271.660156 286.097656 272.167969 286.507812 272.644531 286.957031 C 273.121094 287.40625 273.558594 287.890625 273.960938 288.410156 C 274.359375 288.925781 274.714844 289.476562 275.03125 290.050781 C 275.34375 290.625 275.609375 291.222656 275.828125 291.839844 C 276.046875 292.457031 276.21875 293.085938 276.335938 293.730469 C 278.671875 291.574219 280.925781 289.339844 283.101562 287.027344 C 285.277344 284.710938 287.367188 282.324219 289.375 279.863281 C 291.378906 277.398438 293.296875 274.871094 295.128906 272.273438 C 296.957031 269.675781 298.691406 267.019531 300.332031 264.296875 C 301.972656 261.578125 303.515625 258.804688 304.960938 255.976562 C 306.40625 253.148438 307.75 250.269531 308.992188 247.347656 C 310.234375 244.425781 311.371094 241.460938 312.402344 238.457031 C 313.4375 235.453125 314.363281 232.417969 315.183594 229.347656 C 316 226.28125 316.710938 223.183594 317.3125 220.066406 C 317.910156 216.945312 318.402344 213.8125 318.78125 210.65625 C 319.160156 207.503906 319.425781 204.339844 319.582031 201.167969 C 319.738281 197.996094 319.78125 194.820312 319.714844 191.644531 C 319.648438 188.46875 319.46875 185.300781 319.175781 182.136719 C 318.882812 178.976562 318.480469 175.828125 317.96875 172.691406 C 317.453125 169.558594 316.832031 166.445312 316.097656 163.355469 C 315.363281 160.265625 314.523438 157.203125 313.574219 154.171875 C 312.625 151.140625 311.566406 148.148438 310.40625 145.191406 C 309.246094 142.234375 307.984375 139.320312 306.617188 136.453125 C 305.25 133.585938 303.785156 130.769531 302.21875 128.007812 C 300.65625 125.242188 298.996094 122.535156 297.238281 119.890625 C 295.484375 117.242188 293.636719 114.660156 291.699219 112.144531 C 289.761719 109.628906 287.738281 107.183594 285.625 104.808594 C 283.515625 102.433594 281.324219 100.136719 279.050781 97.917969 C 276.78125 95.699219 274.433594 93.5625 272.007812 91.511719 C 269.585938 89.457031 267.09375 87.492188 264.53125 85.613281 C 261.96875 83.734375 259.34375 81.949219 256.65625 80.257812 C 253.96875 78.566406 251.222656 76.96875 248.421875 75.472656 C 245.621094 73.972656 242.773438 72.574219 239.875 71.277344 C 236.972656 69.980469 234.03125 68.785156 231.050781 67.695312 C 228.066406 66.605469 225.046875 65.621094 221.996094 64.746094 C 218.941406 63.867188 215.863281 63.097656 212.753906 62.4375 C 209.648438 61.78125 206.523438 61.230469 203.375 60.789062 Z M 203.402344 60.746094 " fill-opacity="1" fill-rule="nonzero"/><path fill="#3071cd" d="M 101.921875 254.042969 C 100.871094 252.582031 99.859375 251.09375 98.886719 249.578125 C 97.914062 248.0625 96.984375 246.523438 96.09375 244.960938 C 95.203125 243.394531 94.355469 241.808594 93.546875 240.203125 C 92.742188 238.59375 91.976562 236.964844 91.257812 235.3125 C 90.535156 233.664062 89.859375 232 89.230469 230.3125 C 88.597656 228.628906 88.007812 226.929688 87.46875 225.210938 C 86.925781 223.496094 86.429688 221.765625 85.976562 220.023438 C 85.527344 218.28125 85.121094 216.527344 84.765625 214.765625 C 84.40625 213 84.097656 211.230469 83.832031 209.449219 C 83.566406 207.667969 83.351562 205.882812 83.179688 204.09375 C 83.011719 202.300781 82.890625 200.503906 82.816406 198.707031 C 82.742188 196.910156 82.714844 195.109375 82.734375 193.3125 C 82.753906 191.511719 82.824219 189.714844 82.9375 187.917969 C 83.054688 186.121094 83.21875 184.332031 83.425781 182.542969 C 83.636719 180.757812 83.894531 178.976562 84.199219 177.203125 C 84.503906 175.429688 84.855469 173.664062 85.253906 171.910156 C 85.652344 170.152344 86.097656 168.410156 86.585938 166.679688 C 87.078125 164.949219 87.613281 163.230469 88.195312 161.527344 C 88.777344 159.824219 89.402344 158.136719 90.070312 156.46875 C 90.742188 154.796875 91.457031 153.144531 92.214844 151.515625 C 92.972656 149.882812 93.773438 148.269531 94.617188 146.679688 C 95.457031 145.089844 96.34375 143.523438 97.269531 141.980469 C 98.195312 140.4375 99.160156 138.921875 100.167969 137.429688 C 101.171875 135.9375 102.21875 134.472656 103.300781 133.035156 C 104.386719 131.597656 105.507812 130.191406 106.664062 128.8125 C 107.824219 127.4375 109.019531 126.089844 110.246094 124.777344 C 111.476562 123.460938 112.738281 122.183594 114.035156 120.933594 C 115.335938 119.6875 116.664062 118.476562 118.023438 117.296875 C 119.386719 116.121094 120.777344 114.980469 122.199219 113.878906 C 123.621094 112.773438 125.070312 111.710938 126.550781 110.683594 C 128.027344 109.65625 129.53125 108.667969 131.0625 107.722656 C 132.589844 106.773438 134.144531 105.867188 135.722656 105.003906 L 166.125 60.761719 C 163.917969 61.070312 161.722656 61.433594 159.535156 61.851562 C 157.351562 62.269531 155.175781 62.738281 153.011719 63.265625 C 150.847656 63.789062 148.699219 64.367188 146.5625 64.996094 C 144.429688 65.628906 142.3125 66.3125 140.210938 67.046875 C 138.109375 67.78125 136.027344 68.570312 133.964844 69.40625 C 131.902344 70.246094 129.863281 71.132812 127.84375 72.074219 C 125.824219 73.011719 123.832031 74 121.863281 75.039062 C 119.894531 76.074219 117.949219 77.160156 116.035156 78.296875 C 114.117188 79.429688 112.230469 80.609375 110.375 81.835938 C 108.515625 83.0625 106.691406 84.335938 104.894531 85.652344 C 103.101562 86.96875 101.339844 88.328125 99.613281 89.734375 C 97.886719 91.136719 96.195312 92.585938 94.539062 94.070312 C 92.882812 95.558594 91.265625 97.085938 89.683594 98.65625 C 88.105469 100.222656 86.5625 101.828125 85.0625 103.472656 C 83.5625 105.117188 82.101562 106.796875 80.683594 108.511719 C 79.265625 110.230469 77.890625 111.980469 76.558594 113.761719 C 75.226562 115.546875 73.941406 117.363281 72.699219 119.210938 C 71.457031 121.058594 70.261719 122.933594 69.113281 124.839844 C 67.964844 126.75 66.863281 128.683594 65.808594 130.644531 C 64.753906 132.605469 63.75 134.589844 62.796875 136.601562 C 61.839844 138.609375 60.933594 140.644531 60.082031 142.699219 C 59.226562 144.753906 58.421875 146.832031 57.667969 148.925781 C 56.917969 151.019531 56.21875 153.132812 55.570312 155.261719 C 54.921875 157.394531 54.328125 159.539062 53.785156 161.695312 C 53.242188 163.855469 52.753906 166.027344 52.320312 168.210938 C 51.886719 170.394531 51.503906 172.585938 51.179688 174.789062 C 50.851562 176.988281 50.582031 179.199219 50.363281 181.414062 C 50.148438 183.628906 49.984375 185.847656 49.875 188.074219 C 49.769531 190.296875 49.71875 192.519531 49.71875 194.746094 C 49.722656 196.972656 49.78125 199.199219 49.890625 201.421875 C 50.003906 203.644531 50.171875 205.863281 50.394531 208.078125 C 50.617188 210.292969 50.894531 212.5 51.222656 214.703125 C 62.457031 229.898438 81.667969 245.183594 101.921875 254.042969 Z M 101.921875 254.042969 " fill-opacity="1" fill-rule="nonzero"/><path fill="#2cb2cd" d="M 257.078125 293.765625 C 263.941406 284.050781 255.90625 274.527344 242.273438 286.636719 C 248.917969 278.714844 243.664062 268.839844 233.621094 273.949219 C 226.832031 277.40625 224.25 282.445312 214.011719 288.710938 C 190.539062 303.066406 162.648438 295.789062 155.324219 288.511719 C 173.121094 286.707031 184.046875 281.632812 194.148438 272.738281 C 202.273438 265.570312 200.640625 247.828125 169.878906 261.003906 C 121.746094 281.625 71.195312 254.121094 53.871094 228.011719 C 54.5625 230.714844 55.339844 233.390625 56.195312 236.046875 C 57.054688 238.699219 57.996094 241.328125 59.015625 243.921875 C 60.039062 246.519531 61.140625 249.082031 62.320312 251.609375 C 63.5 254.136719 64.757812 256.625 66.089844 259.074219 C 67.425781 261.527344 68.835938 263.933594 70.320312 266.292969 C 71.800781 268.65625 73.355469 270.972656 74.984375 273.238281 C 76.609375 275.503906 78.304688 277.71875 80.070312 279.878906 C 81.835938 282.042969 83.664062 284.144531 85.558594 286.195312 C 87.453125 288.242188 89.410156 290.230469 91.425781 292.15625 C 93.445312 294.082031 95.519531 295.945312 97.652344 297.742188 C 99.785156 299.542969 101.972656 301.273438 104.210938 302.933594 C 106.453125 304.597656 108.742188 306.191406 111.082031 307.710938 C 113.417969 309.230469 115.804688 310.679688 118.230469 312.050781 C 120.660156 313.425781 123.128906 314.722656 125.636719 315.941406 C 128.148438 317.160156 130.691406 318.304688 133.269531 319.367188 C 135.851562 320.429688 138.460938 321.410156 141.101562 322.3125 C 143.742188 323.210938 146.40625 324.03125 149.097656 324.765625 C 151.789062 325.5 154.5 326.152344 157.230469 326.71875 C 159.964844 327.289062 162.710938 327.769531 165.472656 328.167969 C 168.234375 328.566406 171.003906 328.878906 173.785156 329.101562 C 176.566406 329.328125 179.351562 329.46875 182.140625 329.523438 C 184.929688 329.574219 187.71875 329.542969 190.503906 329.421875 C 193.292969 329.300781 196.074219 329.097656 198.847656 328.804688 C 201.621094 328.511719 204.386719 328.136719 207.136719 327.671875 C 209.886719 327.210938 212.621094 326.660156 215.339844 326.03125 C 218.054688 325.398438 220.75 324.679688 223.421875 323.882812 C 226.097656 323.082031 228.742188 322.199219 231.359375 321.238281 C 233.980469 320.273438 236.566406 319.230469 239.117188 318.105469 C 241.671875 316.984375 244.1875 315.78125 246.667969 314.503906 C 249.148438 313.222656 251.582031 311.867188 253.980469 310.4375 C 256.375 309.007812 258.722656 307.503906 261.023438 305.929688 C 263.328125 304.351562 265.578125 302.707031 267.777344 300.992188 C 274.042969 295.671875 266.703125 284.1875 257.078125 293.765625 Z M 257.078125 293.765625 " fill-opacity="1" fill-rule="nonzero"/></svg>